<?xml version="1.0" encoding="utf-8"?>
<!-- Generator: Adobe Illustrator 23.0.2, SVG Export Plug-In . SVG Version: 6.00 Build 0)  -->
<svg version="1.1" id="Capa_2" xmlns="http://www.w3.org/2000/svg" xmlns:xlink="http://www.w3.org/1999/xlink" x="0px" y="0px"
	 viewBox="0 0 792 612" style="enable-background:new 0 0 792 612;" xml:space="preserve">
<style type="text/css">
	.st0{fill:transparent;
			-webkit-animation: rojo  5s forwards 5s;
			-moz-animation: rojo 5s forwards 5s;
			-o-animation: rojo  5s forwards 5s;
			animation: rojo  5s forwards 5s;
	}
	.st1{fill:transparent;
			-webkit-animation: oso  5s forwards 6s;
			-moz-animation: oso 5s forwards 6s;
			-o-animation: oso  5s forwards 6s;
			animation: oso  5s forwards 6s;
	}
	.st2{fill:transparent;
			-webkit-animation: sandia  5s forwards 7s;
			-moz-animation: sandia 5s forwards 7s;
			-o-animation: sandia  5s forwards 7s;
			animation: sandia  5s forwards 7s;
	}
	.st3{fill:transparent;
			-webkit-animation: sandiar  5s forwards 7s;
			-moz-animation: sandiar 5s forwards 7s;
			-o-animation: sandiar  5s forwards 7s;
			animation: sandiar  5s forwards 7s;
	}
	.st4{fill:transparent;
			-webkit-animation: sombra  5s forwards 8s;
			-moz-animation: sombra 5s forwards 8s;
			-o-animation: sombra  5s forwards 8s;
			animation: sombra  5s forwards 8s;
	}
	.st5{fill:none;
	stroke:#E30613;
	stroke-dasharray: 1200;
	stroke-dashoffset: 0;
	stroke-width:2;
	stroke-miterlimit:10;
		-webkit-animation: animacion 10s forwards;
		-moz-animation: animacion 10s forwards;
		-o-animation: animacion 10s forwards;
		animation: animacion 10s forwards;
	
	}
	.st6{fill:transparent;
			-webkit-animation: cara  5s forwards 8s;
			-moz-animation: cara 5s forwards 8s;
			-o-animation: cara  5s forwards 8s;
			animation: cara  5s forwards 8s;
	}
	@-webkit-keyframes animacion {
			0% {
				stroke-dashoffset: 1200;
			}
			50% {
				stroke: #E30613;
			}	
			100% {
				stroke-dashoffset: 0;
				stroke: transparent;
			}
		}
	@-keyframes animacion {
			0% {
				stroke-dashoffset: 1200;
			}
			50% {
				stroke: #E30613;
			}
			100% {
				stroke-dashoffset: 0;
				stroke: transparent;
			}
		}

	@-webkit-keyframes rojo {
			from {
				fill: transparent;
			}

			to {
				fill: #E30613;
			}
		}
	@-keyframes rojo {
			from {
				fill: transparent;
			}

			to {
				fill: #E30613;
			}
		}
	@-webkit-keyframes oso {
			from {
				fill: transparent;
			}

			to {
				fill: #FFFFFF;
			}
		}
	@-keyframes oso {
			from {
				fill: transparent;
			}

			to {
				fill: #FFFFFF;
			}
		}
	@-webkit-keyframes sandia {
			from {
				fill: transparent;
			}

			to {
				fill: #95C11F;
			}
		}
	@-keyframes sandia {
			from {
				fill: transparent;
			}

			to {
				fill: #95C11F;
			}
		}
	@-webkit-keyframes sandiar {
			from {
				fill: transparent;
			}

			to {
				fill: #006633;
			}
		}
	@-keyframes sandiar {
			from {
				fill: transparent;
			}

			to {
				fill: #006633;
			}
		}
	@-webkit-keyframes sombra {
			from {
				fill: transparent;
			}

			to {
				fill: #F6F6F6;
			}
		}
	@-keyframes sombra {
			from {
				fill: transparent;
			}

			to {
				fill: #F6F6F6;
			}
		}
	@-webkit-keyframes cara {
			from {
				fill: transparent;
			}

			to {
				fill: #000000;
			}
		}
	@-keyframes cara {
			from {
				fill: transparent;
			}

			to {
				fill: #000000;
			}
		}
</style>
<path id="AMW" class="st0" d="M292.8,313.4c2.7,8.2,8.1,23.2,18.5,50.7l0.9,2.3h-39.6l0.9-2.2c0,0,0,0,0-0.1
	C280.1,347.8,288.3,327,292.8,313.4z M299.3,267.6l52.1,126.9l51.9-135.6c0.3-0.9,1.2-1.5,2.2-1.5h2.6c1,0,1.8,0.6,2.2,1.5
	c34.3,82.7,46.4,116.1,50.7,129c4.3-12.9,16.5-45.7,50.6-126.8c1.1-3,4-10.8,7.9-21c10.9-29.1,29.2-77.8,33.6-89.3
	C513.9,112.6,460.3,89,401.3,89c-56.5,0-108,21.6-146.7,57L299.3,267.6z M572,171.9l-42.7,113l52.3,142.4
	c23.3-34.6,36.9-76.3,36.9-121.1C618.5,255.5,601.1,208.9,572,171.9z M514,315.6c-4.3,12.3-16.5,44.1-50.6,124.9
	c-0.4,0.9-1.2,1.4-2.2,1.4h-2.6c-1,0-1.8-0.6-2.2-1.5c-32.7-79.9-44.6-112.1-48.9-124.9c-3.8,12.3-14.1,42.6-41.7,114.1
	c0.1,0.6,0,1.2-0.4,1.7c-0.4,0.7-1.2,1-2,1H339c-1,0-1.9-0.6-2.2-1.5l-16.3-43H264l-25.4,62.2c39.8,44.9,97.9,73.3,162.7,73.3
	c63.9,0,121.3-27.6,161.1-71.5C532.3,371.7,518.8,330.8,514,315.6z M279.7,286.7c-9.5-25-32.2-88.1-44-121.1
	c-32.2,37.9-51.7,87-51.7,140.7c0,44.7,13.5,86.2,36.7,120.8L279.7,286.7z"/>
<path id="Transport" class="st1" d="M299.5,454.2v25.1h-4v-25.1h-9.4V451h23v3.1H299.5z M327.5,479.2l-4.3-6.2
	c-3.3-4.9-5-6.2-7.7-6.3v12.5h-3.8V451c0,0,4.2-0.1,7.3-0.1c4.7,0,9,1.7,9,7.1c0,4.2-3.1,7.2-6.8,8c0,0,1.9,0.6,4.3,4l6.5,9.3H327.5
	z M318.3,453.8c-1.4,0-2.8,0-2.8,0v10h0.8c3.5,0,7.8-1.2,7.8-5.6C324.1,454.9,321.8,453.8,318.3,453.8z M345.3,449.3l12.3,29.9h-4.4
	l-3-7.9h-10.6l-3.2,7.9h-4l12.6-29.9H345.3z M340.8,468.3h8.3l-0.4-1c-3.2-8.5-3.6-10.1-3.7-10.2c0,0-0.3,1.5-3.8,10.2L340.8,468.3z
	 M383.8,480.9c-18.7-21.2-19.4-22.7-19.4-22.7s0.2,2.4,0.2,21H361v-29.9h0.4c18.9,21.6,19.4,23,19.4,23s-0.2-2-0.2-21.3h3.6v29.9
	H383.8z M406.3,455.7c0,0-3.4-2.2-7.1-2.2c-3.2,0-4.7,1.6-4.7,4.2c0,3.5,3,4.7,5.8,5.9c3.6,1.4,7.5,3.1,7.5,8.5
	c0,4.7-2.7,7.7-8.7,7.7c-4.9,0-8.4-2.7-8.4-2.7v-3.8c0,0,3.9,3.3,8.4,3.3c3.3,0,4.8-1.7,4.8-4.3c0-3.5-2.8-4.6-5.7-5.8
	c-3.6-1.4-7.5-3-7.5-8.7c0-4.4,3-7.6,8.5-7.6c4,0,7.1,1.9,7.1,1.9V455.7z M419.6,467.7h-2.2v11.5h-3.9V451c0,0,3.7-0.1,7.4-0.1
	c5,0,9,2.8,9,7.8C429.9,465.3,424.3,467.7,419.6,467.7z M420.3,453.9c-1.4,0-2.9,0-2.9,0v10.8h2.4c3,0,6.3-2,6.3-5.8
	C426,455.7,424,453.9,420.3,453.9z M448.6,450.2c7.7,0,14.9,5.4,14.9,14.9c0,9.5-7.2,14.9-14.9,14.9s-14.9-5.4-14.9-14.9
	C433.8,455.6,440.9,450.2,448.6,450.2z M459.4,465.1c0-7.3-4.9-11.6-10.8-11.6c-5.8,0-10.8,4.3-10.8,11.6s5,11.6,10.8,11.6
	S459.4,472.4,459.4,465.1z M485,479.2l-4.3-6.2c-3.3-4.9-5-6.2-7.7-6.3v12.5h-3.8V451c0,0,4.2-0.1,7.3-0.1c4.7,0,9,1.7,9,7.1
	c0,4.2-3.1,7.2-6.8,8c0,0,1.9,0.6,4.3,4l6.5,9.3H485z M475.9,453.8c-1.4,0-2.8,0-2.8,0v10h0.8c3.5,0,7.8-1.2,7.8-5.6
	C481.7,454.9,479.4,453.8,475.9,453.8z M501.7,454.2v25.1h-4v-25.1h-9.4V451h23v3.1H501.7z"/>
<ellipse id="sandia" transform="matrix(0.7071 -0.7071 0.7071 0.7071 -68.6267 362.3294)" class="st2" cx="403" cy="264" rx="47.5" ry="45.8"/>
<path id="sandia_rayas" class="st3" d="M431.6,226.2c1.5,1.1,2.9,2.3,4.3,3.6c-0.2,0.5-0.4,1-0.7,1.4c-0.1,0.2-0.3,0.4-0.5,0.7
	c-0.1,0.1-0.2,0.2-0.2,0.3l-0.2,0.3c-0.3,0.4-0.7,0.8-1.1,1.1c-0.2,0.2-0.4,0.4-0.6,0.5c-0.2,0.2-0.4,0.3-0.6,0.5
	c0,0,0.1,0.5,0.3,0.8c-0.5-0.1-1.1-0.1-1.5,0.1c-0.2,0.1-0.4,0.3-0.4,0.5c0,0.2,0.1,0.5,0.3,0.8c-0.1,0-0.2-0.2-0.3-0.3
	c-0.1,0.3-0.6,0.6-1.1,0.8c-0.5,0.3-1,0.6-1.3,1c1.2,1.3-1.7,0.5,0,2.2l-0.3-0.4c0.7,0.1,1,1.3,1.4,1.8c-1.4-0.7-1-0.7-2.3-1.3
	c0,0,0.2,0,0.3,0c0.2,0,0.3,0,0.3,0l-1.1-0.7c1,1.4,0.3,1.6-0.4,1.7c-0.7,0.1-1.4,0.1-0.7,1.1c-0.1-0.1-0.2-0.2-0.3-0.3
	c-0.9-0.1,0.2,1.2,0.3,1.7c-0.5-0.4-0.7-0.8-0.9-1.2c-0.5,0.2-0.6,0.8-0.7,1.4c-0.2,0.6-0.4,1.1-1.1,1.1c0.4,0.8,0.9,0.7,1.2,1.4
	c-0.4,0.1-1-0.3-1.1-0.8c-0.4-0.1-0.7,0-0.9,0.2c-0.2,0.2-0.4,0.6-0.5,0.9c-0.3,0.7-0.6,1.5-1.6,1.5c0.2,1.1,0.8,1.1,0.6,2.3
	c-0.3-0.6-1.7-1.2-1.3-1.7l-0.4-0.5c-0.8,0.7-1.9,1.5-0.9,3.2c-1-0.9-0.3,0-1.1-0.3c0,0.2,0.2,0.1,0.3,0.1c0.6,1.1-0.4,0.4-0.5,0.7
	l-0.1-0.2l0.1,1.1c-0.2,0-0.5-0.1-0.9-0.4l0.7,0.7c-0.3,0.3-1-0.7-1.2-0.2l0.6,0.4c-0.5-0.1-0.1,1-1,0.3c-0.2-0.1-0.1-0.1,0-0.2
	c-1.4-0.7-0.5,1.2-1.4,1.2l1.3,1c0,0.8-0.5,0-0.9-0.4c-0.3,0.3-0.7,0-1.2,0.3c0.1,0.5,0.3,0.5,0.6,0.9l-0.6,0.1l-0.3-0.6
	c0.8,1.9-1.6,1.1-0.5,2.9c-0.5-0.1-0.5-0.8-0.8-0.9c-0.7,0-0.8,0.6-0.9,1.3c-0.1,0.6-0.2,1.2-0.9,1.1c-1.7,0.2-2,2-3.5,2.5l0.3,0.3
	c0,0-0.2,0.1-0.5,0.2c-0.2,0.1-0.5,0.2-0.5,0.2c0.5,0.9-0.3,1,0.2,2.1c-0.2-0.3-0.6-0.6-0.7-0.8c-0.2,0.4-0.2,1.1-0.8,0.8l-0.2-0.4
	c-0.9,0.5-1.8,1.4-1.6,2.3c-0.2,0.3-0.7-0.3-1.1-0.6c-0.4,0.3-0.4,0.9-0.3,1.7c-0.2,0-0.4-0.1-0.8-0.3l0.6,0.9
	c-0.3,0.1-0.6-0.6-0.9-0.6c0.2,1.5-1.3,1.4-1.6,1.8l0.4,0.3c0.1,0.5-0.7,0.3-0.9-0.3c-0.6,0.2-0.7,0.8-0.8,1.4
	c-0.1,0.7-0.1,1.4-0.8,1.8c-1.4-1.3-0.7,1.4-2.3,0c-0.2,0.9-1,0.5-0.6,1.7c-0.1-0.2-0.3-0.2-0.2-0.3c-0.7-0.4-1,0.6-1.2,1.4
	l-0.4-0.5c0.7,1.2-0.5,1.7,0.2,2.9c-0.2-0.2-0.3-0.5-0.3-0.8c-1.1-0.8-0.1,0.9-0.6,1c-0.2-0.3-0.5-0.5-0.6-0.8
	c-0.5,0-0.9,0.1-1.3,0.4c-0.3,0.3-0.6,0.7-0.9,1.1c-0.6,0.8-1.2,1.8-2.3,2c-0.5,0.3,1,1,0.4,1.4c-0.6-0.4-0.5-1.3-1.1-1.3
	c0.2,0.9,0,0.8-0.4,1c-0.2-0.4-0.4-0.6-0.4-1.1c-0.5-0.3-0.3,1.5-1.3,0.9c0.3,0.3,0.3,0.6,0.4,0.8c0.1,1.4-2.1,0.1-1.8,0.6
	c0,0-0.1,0.3,0.2,0.3c-0.2,0.1-0.7,0.2-1-0.4c0.1,0.4,0.3,0.9,0.2,1.1l-0.4-0.7c0,0.2,0.2,0.7,0.1,0.9l0.4,0.3
	c-0.6-0.3-0.2,1.3-1.1,0.1l0.1-0.1l-0.9-0.2c0.2,0.6,0.3,1.3-0.1,1.4c-1-1.2-1,0.3-1.5,0.5l-0.3-0.5c0.1,0.9-0.9,1.2-0.6,1.3
	c-0.3,0.2-1,0.3-1.1-0.3c-0.1,0.5-0.6,0.9-0.2,1.7l-1.3-0.7c0.8,1.8-1.5,0.2-0.3,1.9c-0.4,0-0.6-0.3-0.8-0.4
	c-0.1,0.1-0.2,0.2-0.2,0.3c0,0.7-0.4,0.9-0.9,1.1l-0.1-0.2c-0.1,0-0.2,0.1-0.2,0.2c0.1,0.4,0.1,0.8,0,1.1c-0.3,0.6-0.7,1.1-1.2,1.6
	c0,0,0,0-0.1,0c0,0.4-0.1,0.8-0.3,1l-0.4,0.4c-1.4-1.4-2.6-2.9-3.7-4.5c0-0.2,0-0.3,0-0.5l0.4,0.9c0.1-0.2,0-0.7,0.1-0.8l-0.2,0
	c-0.6-0.2,0.3-0.7,0.1-1.3c0.6,0.9,0.4,0.8,1.1,1.3c-0.1-0.3-0.3-0.6-0.3-0.9c0-0.3,0-0.6,0.2-1l0.4,0.9c0.3-0.4,0.3-1,0.2-1.6
	c-0.1-0.6-0.2-1.3-0.3-1.8c0.4,0.5,0.7,0.3,1,0.8l0.3-0.9l0.4,0.6c-0.4-0.7,0.2-0.8-0.6-1.2c0,0.2,0.1,0.2,0,0.3
	c-0.2-0.1-0.6-0.6-0.3-1c0.3-0.2,0.2,0.4,0.4,0.4c-0.2-0.5,0.3-0.2,0.3-0.6l-0.5,0.1c-0.3-0.5,0.2-0.5,0.2-0.9
	c0,0.5,0.3,0.5,0.7,0.6l-0.1,0c0.1-0.2-0.1-0.7,0.3-0.7l0.5,0.6l-0.3-0.6c0.1-0.1,0.4,0,0.4,0.3c0.9-0.7-1.4-0.9-0.1-1.7
	c0.2,0.2,0.3,0.4,0,0.7c0.4,0.3,0.6,0.4,1,0.2c0,0,0,0,0.1,0c0.4-0.6,1-1.3,0.8-2.1c0.3,0,0.3,0.3,0.4,0.5c0.3-0.2,0.4-0.5,0.5-0.8
	c0.1-0.3,0.2-0.5,0.7-0.7l-0.5,0.1c-0.1-0.7,0.5-1.6,1.3-1.6l0.1,0.3c0-0.4,0.2-0.6,0.5-0.7c0.3-0.1,0.6-0.2,0.5-0.5
	c-0.4,0-0.4-0.3-0.8-0.3c0,0,0.1-0.3,0.2-0.7c0.1-0.4,0.2-0.7,0.2-0.7l0.8,0.6l0.2-0.7c-0.4-0.1,0.9-0.5,0.1-1.1
	c0.5-0.1,0.5,0.6,0.7,1c0-0.5,0.4-0.2,0.2-0.9l0.9,0.3l0.2-1.2c0,0.1,0.1,0.1,0.2,0.2c-0.3-0.9,1.2-0.5,0.6-1.9
	c0,0.1,0.1,0.1,0.1,0.1c-0.3-0.8,0.6-1,1-1c0.2-0.5-0.5-0.8-0.8-1.1c1.3-0.9,0.9-0.6,0.9-2.4c0.7,0.2,1,0.7,1.2,1.2
	c0.2,0.5,0.4,0.9,1.1,0.9c-0.4-0.5-0.2-1.4,0.1-2.1c0.8-0.2,2-0.8,3.1-0.6l-0.7-0.6c0,0,0.1-0.3,0.2-0.5c0.1-0.3,0.2-0.5,0.2-0.5
	l0.6,1.3c-0.1-0.3-0.2-1.1-0.3-1.6c0.1-1.3,1.9,1,1.4-0.6c0.1,0,0.2,0.1,0.3,0.2c-0.3-0.7,0.3-1,0.7-1.7l0.7,1.1l-0.6,0.2
	c1.1,0.6,0.5-0.7,0.9-1c0.1-0.7-0.9-1.2-1-1.6c0.2-0.1,0.1-0.6,0.5-0.4c0.6-0.1,1.1,1,1.4,1.5c-0.7-1.2-0.5-1.2-0.2-2.2
	c0.5,0.4,0.7,0.6,0.7,0.8c0-0.2-0.1-0.5-0.4-1l0.8,0.3c1.5,0-1.1-2.4,0-3c0.3,0.7,0.6-0.9,1.5-0.5c-0.1,0.4,1.6,1.2,2,2
	c1-0.3-0.9-1.4-0.6-2.2l1,1.4c0-1-0.5-0.8-0.4-1.7c0.2,0.5,0.6,0.1,0.7,0.8c0.8-0.6,0.5-0.5,1.3-1l-1.2-1.2c0.1-0.3,0.7,0.1,1,0.3
	c-0.1,0.1-0.2,0.2-0.1,0.3c0.7,0.4,0.6,0.2,0.5-0.1c-0.1-0.2-0.1-0.5,0.5-0.2c-0.5-0.3-1.1-0.8-0.9-1.1c0.7,0.8,1.1,0.3,1.4,0.6
	c-0.3-0.2-0.3-0.4-0.2-0.6c0.1-0.2,0.1-0.5-0.3-1c0.9,0.3,0.5,0.7,0.9,1.1c-0.3-0.6-0.1-0.9,0.2-1.1c0.3-0.2,0.6-0.3,0.5-0.7
	c0.1,0.1,0.1,0.1,0.2,0.2c-0.2-0.9,0.2-1.5,0-3l0.5,1c1-0.2-1-2-0.5-2.5c0.9,1.3,0.9-0.8,1.7,0.7c-0.2-0.9-0.1-1.5-0.8-2.7
	c0.9,0.4,0.8,2.1,1.5,2.1l0-1l0.6,0.6c-0.4-0.5,0-0.9-0.4-1.2c0.8,0.7,1.4,1.1,1.9,1.8c0.1-0.5,1.2,0,0.9-0.9l0.4,0.4
	c-0.5-0.9-0.3-1.1-0.2-1.4c0.2-0.3,0.3-0.5-0.3-1.4l1,0.7c0.3-0.5-1.2-2.1-1.3-2.6c0.1-0.2,0.2-0.6,0.5-0.6c0.3,1.5,1.4,1,2,1.5
	c0.1-0.1,0.3-0.3,0.5-0.6c0.1-0.3,0.1-0.7-0.1-1.2c0.4,1.1,1.2,1.6,0.7,2.1c0.8,0.7,1,0.5,1,0c0-0.4-0.1-1.1,0.3-1.2l0.6,0.8
	c0.2-0.6,0-1.2-0.3-1.9c-0.3-0.7-0.8-1.4-1.1-2.3c0.9,0.9,1,1.2,1.6,2.4c1.1,0.2,1.4-1.1,2.2-1.5c0.8,0.6,1,1.1,1,1.5
	c0.1-1.2,1.6-0.9,0.7-3c0.4,0.8,0.6,0.3,1.1,0.4c-0.3-0.4-0.6-0.9-0.5-0.8c-0.1-1,0.3-2.3,1.2-2l0.2,0.6c0.7-0.3,0.6-1.2,0.5-2.1
	c0-0.8,0.1-1.6,1.2-1.4c0.5,0.2,0.9,1.6,1.3,1.2c-0.3-0.8-1.4-2-0.5-2.1l0.8,1.1l-0.5-1.4c-0.9-0.8-1.3,0-1.7-1.3
	c1.3,0.7-0.3-1.3,1.2-0.5c-0.1,0.2,0.4,1.2,0.7,1.7c1.2,0.2,1.4-0.4,1.6-1c0.3-0.6,0.5-1.1,1.7-1c0-1.3,0.7-2,0.6-3
	c0.7,1,1.4,1.8,1.7,2.8c0.3-0.1,0.1-0.8,0-1.3c-0.1-0.5-0.1-0.8,0.7-0.2c-0.7-1.5,1-1.9-0.1-3.7c0.1,0.2,0.3,0.1,0.5,0.1
	c0.1,0,0.2,0.2,0.2,0.9c0.3-0.5,0.8-0.3,1.3,0.1c0.5,0.3,1,0.8,1.2,0.7c0.1-0.1-0.1-0.3-0.3-0.6c-0.2-0.3-0.4-0.5-0.1-0.7
	c0.1,0,0.2,0.2,0.3,0.3l0-0.5c0.4,0.3,0.3,0.9,0.5,1.4c0.2,0,0.4-0.1,0.5-0.2c0.1-0.1,0.2-0.3,0.3-0.5c0.2-0.4,0.4-0.9,0.8-1.1
	c0,0,0,0.1,0,0.2c0,0.1,0,0.2,0,0.2s0.1,0,0.2,0c0.1,0,0.2,0,0.3-0.1c0.2,0,0.5-0.1,0.5-0.1l0,0.1c0,0,0,0,0.1-0.1
	c0.1-0.1,0.1-0.2,0.2-0.2c0.2-0.2,0.3-0.3,0.3-0.3l0.1,0.4c0.1-0.1,0.1-0.4,0.4-0.5l0.1,0.5C431.4,226.5,431.5,226.3,431.6,226.2z
	 M423.1,221.5c-0.2,0-0.4,0.1-0.6,0.1c-0.2,0-0.4,0-0.6,0c0-0.2,0.5-0.3,0.2-0.5l-0.2,0.1c-0.1,0-0.1-0.1-0.2-0.1
	c-0.7,0,0,0.4-0.3,0.4c-0.3,0-0.5-0.2-0.8-0.4c-0.3-0.2-0.7-0.4-1.2-0.2c0.8-0.4,0-0.3-0.1-0.4c0,0.7-1.9,0.6-2.1,1.2
	c-0.4-0.2-0.6-0.1-0.8,0.1c-0.1,0.1-0.2,0.2-0.3,0.3c-0.1,0.1-0.3,0.2-0.4,0.2c0.3-0.4,0.1-0.8,0-1.2c-0.3,0.2-0.7,0.4-1.1,0.6
	c-0.2,0.1-0.4,0.2-0.6,0.3c-0.2,0.1-0.4,0.3-0.6,0.4c-1,0-1.5,0.3-2,0.6c-0.5,0.3-1,0.7-2,0.7c0-0.2,0-0.7,0.2-0.8
	c-1.1-0.2-0.5,0.6-1.4,0.5c-0.3,0.7,0.4,0.2,0.9,0.5l-0.2,0.7l-0.2-0.5c-0.8,0.2-0.4,0.7-0.5,1.1c-0.5,0.3-0.3-0.4-0.6-0.4
	c-0.9,0.1-1.3,0.5-1.6,1c-0.3,0.5-0.6,1-1.3,1.3l0.1-0.3c-0.7,0-1.6,0.9-1.8,1.5c0,0,0,0.2,0.2,0.4c-0.4,0-0.8,0.4-0.8,0
	c0.1,1-1.1,1.3-1.6,2.1c0.1-0.3,0.1-0.6-0.3-0.7c-0.7,0.4-1.5,1.4-2.3,1.6c-0.1-0.6-0.1-0.8-0.5-1.2c0.1,0.9,0.5,1.5-0.2,2.4
	l-0.3-0.4c-0.4,0.2-0.5,0.6-0.6,0.9c-0.1,0.3-0.3,0.5-0.8,0.2c0.5-0.5,0.1-0.6,0-1.3c0.1,0.3-0.1,0.6-0.3,0.8
	c-0.1,0.1-0.2,0.2-0.3,0.3c-0.1,0.1-0.2,0.2-0.3,0.2c-0.4-0.2-1.4,0.6-1.2-0.5c-0.3,0.1-0.4,0.4-0.6,0.6c-0.1,0.4,0.7,1.1,0.3,1.6
	l-0.6-0.3c0.5,0.9-0.6,0.9-0.3,1.9l-0.2-0.2c0.1,0.6-0.7,0.6-0.9,1c-0.3-0.3-0.7-0.4-1.2-0.8c0.2,0.2-0.2,0.6,0,0.9l-0.4-0.3
	l-0.2,0.8c-0.6,0.2-0.1-1.2-0.8-1.2c0.3,0.8,0,1.3,0,1.9c-0.4-0.9-0.8,0.7-1.3,0c-0.6,0.5,0.7,1.4-0.2,1.8l-0.2-0.7
	c-0.1,0.6-0.3,1-0.4,1.4c-0.2,0.4-0.3,0.7-0.3,1c0,0-0.1-0.1-0.1-0.1c0.1,0.6-1.3,0.8-1,1.6c-0.2-0.3,0.2-0.7-0.5-0.7
	c0.2,0.3,0.1,0.5,0,0.8c-0.1,0.2-0.2,0.4,0,0.5c-0.2-0.2-0.7,0.3-1-0.2c-0.2,0.3,0.2,0.6,0.5,0.7c-0.9-0.3,0,0.9-0.9,0.4
	c-0.1-0.1,0.1-0.2,0.1-0.3c-0.2-0.1-0.6-0.3-0.7,0l0.7,0.8c-0.7,0.5-0.5,0.4-1.3,1.1c0.1-0.6-0.3-0.2-0.4-0.5
	c-0.3,0.8,0.2,0.5,0,1.4l-0.6-1c-0.4,0.7,1,1.2,0.1,1.7c-0.2-0.6-1.5-0.9-1.3-1.3c-0.7-0.1-1.2,1.4-1.3,0.8c-1,0.8,0.8,2.3-0.5,2.6
	c0,0-0.1,0-0.3,0c-0.1,0-0.3,0-0.3,0c0.2,0.3,0.3,0.6,0.2,0.8c0-0.2-0.1-0.3-0.4-0.6c-0.3,1-0.5,1,0,1.9c-0.2-0.4-0.5-1.2-1-1
	c-0.3,0-0.3,0.4-0.4,0.5c0,0.4,0.7,0.6,0.6,1.2c-0.4,0.4,0,1.5-0.8,1.2l0.5-0.3l-0.5-0.8c-0.4,0.8-1,1.2-0.7,1.8
	c-0.1,0-0.1-0.1-0.2-0.1c0.3,1.3-1-0.3-1.2,0.9c0.1,0.5,0.1,1.2,0.2,1.4l-0.4-1.1l-0.3,1.1l0.6,0.3c-0.9,0.2-1.8,1.1-2.5,1.5
	c-0.3,0.8-0.4,1.6-0.1,2c-0.5,0.3-0.7-0.1-0.9-0.5c-0.2-0.4-0.4-0.8-1-0.7c0,0.9,0.1,1.2,0.1,1.4c0,0.3-0.2,0.5-0.7,1.2
	c0.2,0.2,0.9,0.2,0.7,0.8c-0.3,0.2-1,0.7-0.7,1.4c0,0-0.1,0-0.1-0.1c0.5,1.1-0.7,1.3-0.4,2.1c0-0.1-0.1-0.1-0.1-0.1l-0.1,1.2l-0.8,0
	c0.2,0.6-0.1,0.4-0.1,0.9c-0.2-0.3-0.2-1-0.6-0.8c0.6,0.4-0.4,1.2-0.1,1.2c0,0,0,0.2-0.1,0.4c0,0.1,0,0.2-0.1,0.3c0,0.1,0,0.1,0,0.1
	l-0.7-0.3l-0.3,1.5c0.4-0.2,0.4,0.1,0.7,0c0.1,0.2-0.1,0.4-0.3,0.6c-0.2,0.2-0.5,0.5-0.4,0.9l-0.1-0.2c-0.3,0.1-0.6,0.4-0.8,0.8
	c-0.1,0.4-0.2,0.8-0.2,1.2l0.4-0.3c-0.7,0.6-0.3,1.2-0.8,1.9c-0.1-0.2-0.2-0.5-0.4-0.4c0.1,0.3,0.1,0.7,0,1.2
	c-0.1,0.2-0.1,0.4-0.2,0.6c-0.1,0.2-0.1,0.4-0.2,0.6c0,0,0,0-0.1,0c-0.2,0.3-0.5,0.4-0.8,0.2c0.2-0.4,0.1-0.6-0.1-0.7
	c-0.5,0.7-0.2,0.8,0,1c0.1,0.1,0.3,0.1,0.3,0.2c0.1,0.1,0.1,0.3-0.1,0.5c-0.1-0.3-0.3-0.2-0.4-0.1l0.3,0.5l-0.5-0.4
	c-0.3,0.1,0,0.5-0.1,0.8l0.1,0c-0.3,0.1-0.5,0.2-0.6-0.3c0.1,0.4-0.3,0.7,0,1l0.3-0.2c0.1,0.4-0.3,0.3-0.1,0.7
	c-0.2,0-0.2-0.6-0.4-0.2c-0.1,0.3,0,0.5,0.1,0.6c0.1,0.2,0.2,0.2,0.3,0.3c0-0.2,0-0.2-0.1-0.3c0.6,0.1,0.2,0.5,0.7,1.1l-0.4-0.4
	l0,1.1c-0.3-0.5-0.5-0.2-0.9-0.5c0.3,0.8,0.7,1.8,0.8,2.8c0.7,1.3,1.4,2.5,2.2,3.8c0.1,0,0.1-0.1,0.1-0.1c-0.1-0.2-0.2-0.5-0.1-0.7
	c0-0.3,0.1-0.6,0.1-0.8c0.1,0.3,0.4-0.2,0.5-0.7c-0.1,0.1,0-0.2,0.1-0.5c0.1-0.3,0.2-0.7,0.1-1.1l0.2,0.1c0.3-0.5,0.1-1.8,0.8-1.6
	c0.3-0.4,0.1-0.8,0-1.2l0.5-0.5l0,0.1c0.6,0.4,0.2-0.7,0.7-0.8l-0.3,0.1c0-0.2-0.1-0.5-0.1-0.6l0.3,0.4c0.1-0.3-0.1-0.6-0.2-0.8
	c0.3,0.3,0.5-0.1,0.7-0.4c-0.1,0.1-0.1,0.1-0.1,0c0-0.1,0-0.1,0-0.1c-0.1-0.1,0.2-0.3,0.5-0.5c0.3-0.2,0.7-0.6,0.6-1.2
	c-0.1-0.2-0.1-0.4-0.3-0.5c0.4-0.1,0.5-0.5,0.6-0.8c0.1-0.4,0.1-0.8,0.3-0.8c0,0.4,0.2,0.5,0.3,0.7c0.3-0.4,0.5-0.5,0.3-1.1
	c0.4-0.3,0.4,0.5,0.9,0.5c0.5-0.7-0.7-0.5-0.3-1c0.4-0.4,0.8-0.9,1.1-1.4c0.3-0.5,0.5-1.1,0.8-1.6c0.5-1.1,1-2.1,1.9-2.4
	c0.1,0.2,0.4,0.3,0.5,0.5c0.5-0.3-0.4-1.4,0.6-1.1c0.1,0.2,0.1,0.5,0.3,0.6c-0.6-0.9,0.5-1.7-0.1-2.7l0.4,0.3c0.2-0.9,0.5-2,1.1-1.8
	c-0.1,0.1,0,0.1,0.2,0.2c-0.4-1.1,0.4-1,0.6-1.9c0.7,0.5,0.9,0.1,1.1-0.3c0.2-0.4,0.4-0.8,1-0.3c1.3-1.2,0.3-3,1.5-3.7
	c0.1,0.6,0.9,0.6,0.8,0.1l-0.4-0.2c0.4-0.6,1.8-0.7,1.6-2.2c0.3,0,0.7,0.6,0.9,0.5l-0.6-0.8c0.4,0.1,0.6,0.1,0.8,0.2
	c-0.1-0.8-0.2-1.4,0.2-1.9c0.4,0.3,0.9,0.8,1.1,0.4c-0.2-1,0.8-2.1,1.6-2.7l0.2,0.4c0.6,0.2,0.6-0.5,0.8-1c0.1,0.3,0.6,0.5,0.8,0.8
	c-0.5-1.1,0.3-1.4-0.2-2.3l1-0.6l-0.3-0.3c0.2-0.1,0.4-0.2,0.6-0.3c0.2-0.1,0.3-0.3,0.5-0.4c0.3-0.3,0.6-0.7,0.9-1
	c0.3-0.3,0.6-0.6,0.9-0.9c0.3-0.2,0.7-0.4,1.2-0.4c0.4,0.1,0.6,0,0.8-0.3c0.2-0.2,0.2-0.6,0.3-0.9c0.1-0.3,0.2-0.7,0.3-1
	c0.2-0.3,0.4-0.4,0.8-0.4c0.4,0.1,0.2,1,0.8,1.1c-0.6-1.1-0.1-1.4,0.3-1.6c0.4-0.3,0.9-0.6,0.3-1.9l0.4,1l0.7,0
	c-0.3-0.5-0.5-0.6-0.6-1.1c0.5-0.2,1,0.2,1.3-0.1c0.4,0.5,0.9,1.5,1,0.6l-1.4-1.4c0.5,0.1,0.5-0.4,0.6-0.9c0-0.2,0.1-0.4,0.2-0.5
	c0.2-0.1,0.4-0.1,0.8,0.2c-0.1,0.1-0.2,0.1,0,0.3c0.9,1,0.5-0.4,1.2-0.2l-0.7-0.6c0.2-0.6,1.1,0.7,1.4,0.4l-0.8-0.9
	c0.4,0.4,0.8,0.5,1,0.6c0,0,0-0.4-0.1-0.7c0-0.4-0.1-0.7-0.1-0.7l0.1,0.3c0.1-0.4,1.3,0.7,0.6-0.8c-0.1,0-0.3,0-0.3-0.2
	c1,0.5,0.2-0.8,1.4,0.6c-1.1-2.4,0.3-3.1,1.3-3.6l0.5,0.8c-0.5,0.5,1.2,1.7,1.5,2.5c0.4-1.3-0.3-1.5-0.5-3c1.2,0.4,1.7-0.5,2.1-1.2
	c0.5-0.7,0.9-1.4,1.9-0.8c0,0.7,0.8,1.3,1.2,1.4c-0.2-0.9-0.9-0.9-1.3-2c0.9,0.3,1.3-0.3,1.6-0.9c0.4-0.6,0.7-1.2,1.3-1.2
	c0.2,0.6,0.3,1.2,0.8,1.8c0-0.7-1-2.5,0.1-2c0.1,0.1,0.2,0.4,0.3,0.5c-0.6-1.4,0.3-1,1.1-0.8c0.8,0.2,1.2-0.8,1.2-0.8
	c1.4,1.2,0.9,1,2.3,2.3c-0.3-0.6-0.4-2-1.2-2.4l0.2,0.6c-0.8-1.2-0.4-1.3,0.1-1.3c0.5,0,1,0,0.6-0.9c0.8-0.7,2.9-0.4,3.4-0.9
	c0,0.1,0.1,0.4,0.2,0.4c-0.3-0.8,0.1-1.2,0.7-1.3c0.6-0.1,1.4,0.2,1.8,0.4c-0.8-0.9,0-0.8,0-0.8c1.3-0.3,2.6-0.6,3.9-0.8
	c0.2,0,0.4-0.1,0.6-0.1c-1.9-1.2-3.8-2.3-5.8-3.2C423.4,221.4,423.2,221.5,423.1,221.5z M402.7,218.1c0-0.2,0.4-0.5,0.5-0.7
	c-0.3,0-0.7,0-1,0C402.4,217.7,402.3,217.7,402.7,218.1z M401.3,217.5c-0.4,0-0.9,0.1-1.3,0.1c0.1,0,0.1,0,0.2,0
	C400.6,217.7,401,217.7,401.3,217.5z M413.5,218.3C413.5,218.3,413.5,218.2,413.5,218.3c-0.1,0-0.3-0.1-0.4-0.1c0,0,0,0-0.1,0
	c-0.1,0-0.2,0-0.3-0.1c-1-0.2-2-0.3-3.1-0.4c-0.5,0.1-1,0.2-1.1,0.5c-0.4-0.3-0.6-0.2-0.8,0c-0.2,0.2-0.5,0.4-0.9,0.4
	c0.3-0.3,0.2-0.7,0.2-1.1c-0.1,0-0.1,0-0.2,0c-0.3,0.1-0.7,0.3-1.1,0.4c-0.5,0.2-1,0.3-1.4,0.6c-0.5-0.1-0.9,0-1.3,0
	c-0.4,0.1-0.6,0.2-0.9,0.3c-0.6,0.3-1.1,0.5-2.1,0.5c0.1-0.2,0.2-0.6,0.3-0.7c-1-0.2-0.6,0.5-1.5,0.3c-0.4,0.6,0.4,0.2,0.8,0.5
	l-0.3,0.6l-0.1-0.4c-0.8,0.1-0.5,0.6-0.7,0.9c-0.6,0.2-0.2-0.4-0.5-0.4c-0.5,0-0.8,0.1-1.1,0.2c-0.3,0.1-0.5,0.3-0.7,0.5
	c-0.2,0.2-0.4,0.4-0.7,0.6c-0.2,0.2-0.5,0.4-0.9,0.5l0.1-0.3c-0.4,0-0.8,0.2-1.2,0.4c-0.4,0.2-0.7,0.5-0.9,0.8c0,0,0,0.2,0.1,0.3
	c-0.4,0-0.9,0.3-0.8,0c-0.1,0.9-1.4,1-2,1.7c0.2-0.2,0.3-0.5-0.1-0.6c-0.4,0.2-0.8,0.5-1.3,0.7c-0.4,0.3-0.9,0.5-1.3,0.6
	c0.1-0.5,0.1-0.6-0.2-0.9c-0.1,0.4,0,0.7-0.1,1c-0.1,0.3-0.2,0.6-0.6,1l-0.2-0.3c-0.8,0.3-0.9,1.4-1.6,1.1c0.6-0.4,0.2-0.5,0.3-1
	c0,0.4-0.8,1-1.1,1.2c-0.3-0.1-1.4,0.5-1-0.3c-0.3,0.1-0.5,0.3-0.7,0.5c-0.1,0.3,0.4,0.8-0.1,1.2l-0.5-0.2c0.3,0.7-0.8,0.8-0.7,1.6
	l-0.1-0.1c-0.1,0.5-0.8,0.6-1,0.9c-0.2-0.2-0.5-0.3-0.9-0.5c0.1,0.1-0.3,0.5-0.2,0.7l-0.3-0.2l-0.3,0.7c-0.6,0.3,0.1-0.9-0.4-0.9
	c0.1,0.6-0.2,1-0.4,1.6c-0.2-0.7-0.9,0.7-1.1,0.2c-0.6,0.5,0.4,1-0.4,1.6l0-0.5c-0.3,1-0.9,1.6-1,2.2c0,0-0.1,0-0.1-0.1
	c0,0.4-1.2,1-1,1.6c-0.2-0.2,0.2-0.6-0.3-0.5c0.3,0.4-0.1,1-0.2,1.1c0,0.1-0.6,0.4-0.9,0.1c-0.2,0.3,0.1,0.4,0.3,0.5
	c-0.7-0.1-0.2,0.7-0.8,0.6c-0.1,0,0.1-0.2,0.1-0.3c-0.2,0-0.5-0.1-0.6,0.2l0.5,0.5c-0.7,0.7-0.4,0.5-1.2,1.3
	c0.1-0.5-0.2-0.1-0.2-0.4c-0.4,0.8,0.1,0.4-0.2,1.2l-0.3-0.7c-0.2,0.4-0.1,0.6,0.1,0.8c0.1,0.2,0.2,0.4-0.2,0.7
	c-0.1-0.4-1.1-0.4-0.9-0.8c-0.5,0.1-1.1,1.5-1.2,1c-0.5,0.5-0.4,0.9-0.3,1.4c0.1,0.4,0.1,0.8-0.4,1.1l-0.4,0.1
	c0.1,0.2,0.1,0.5,0.1,0.7c0-0.1,0-0.3-0.3-0.4c-0.3,0.9-0.5,1-0.3,1.7c-0.1-0.3-0.3-1-0.7-0.7c-0.2,0-0.3,0.4-0.4,0.5
	c0,0.4,0.5,0.4,0.4,1c-0.3,0.4-0.1,1.4-0.7,1.3l0.4-0.4l-0.3-0.6c-0.3,0.8-0.8,1.3-0.7,1.8c0,0-0.1,0-0.2,0c0.1,0.6-0.1,0.6-0.4,0.5
	c-0.2,0-0.5,0-0.7,0.6c0,0.4,0,1.1,0,1.3l-0.2-0.9l-0.3,1.1l0.4,0.2c-0.4,0.2-0.8,0.5-1.1,0.9c-0.4,0.4-0.7,0.8-1,1.1
	c-0.3,0.8-0.4,1.7-0.2,2c-0.9,0.7-0.4-1.2-1.4-0.8c-0.1,0.8,0,1.1-0.1,1.4c0,0.1-0.1,0.3-0.2,0.4c-0.1,0.2-0.2,0.4-0.5,0.8
	c0.2,0.1,0.7,0.1,0.6,0.6c-0.1,0.1-0.3,0.3-0.4,0.6c-0.1,0.3-0.2,0.6-0.1,0.8c0,0-0.1,0-0.1-0.1c0.3,0.5,0.2,0.8,0.1,1.1
	c-0.1,0.3-0.2,0.6-0.1,0.9c0-0.1-0.1,0-0.1-0.1c0,0,0,0.1,0,0.2c0,0.1,0,0.1,0,0.2c0,0,0,0.1,0,0.1c0,0,0,0,0,0.1l0,0
	c0,0,0.1,0.1,0.1,0.1c0,0,0.1,0.1,0.1,0.1c0,0-0.1,0.1-0.2,0.2c0,0,0,0,0,0c0,0,0,0,0,0.1c0,0,0,0.1-0.1,0.1c0,0.1-0.1,0.1-0.1,0.1
	c0,0.1,0,0.1,0.1,0.2c0,0,0,0.1,0,0.1c0,0.1,0,0.2,0,0.2c0,0.1,0,0.1,0,0.2c0,0,0,0.1,0,0.1c0,0.1-0.1,0.2,0,0.5
	c-0.2-0.2-0.3-1-0.6-0.6c0.5,0.2-0.1,1.3,0.2,1.2l0,0.8l-0.6-0.1c0,0,0,0.1,0,0.3c0,0.2,0,0.4,0,0.6c0,0.4,0.1,0.8,0.1,0.8
	c0.2-0.3,0.3,0,0.5-0.2c0.3,0.3-0.5,1.1-0.3,1.8l-0.1-0.2c-0.2,0.2-0.4,0.6-0.4,1c0,0.4,0.1,0.9,0.2,1.3l0.2-0.4
	c-0.1,0.3-0.2,0.5-0.2,0.7c0.4,2.9,1.1,5.7,2,8.4l0.3-0.6l0,0.1c0.5,0.2,0.1-0.8,0.3-1.1l-0.2,0.2c0-0.2-0.2-0.4-0.2-0.6l0.3,0.3
	c0-0.3-0.2-0.5-0.3-0.8c0.2,0.2,0.4-0.3,0.5-0.6c-0.1,0.3-0.1-0.1-0.1-0.1c-0.1-0.1,0.1-0.4,0.3-0.7c0.3-0.4,0.5-0.8,0.4-1.4
	c-0.1-0.2-0.1-0.3-0.3-0.4c0.3-0.2,0.4-0.6,0.4-1.1c0-0.4,0-0.8,0.2-0.9c0,0.5,0.2,0.4,0.3,0.6c0.2-0.5,0.3-0.6,0.1-1.2
	c0.3-0.5,0.4,0.4,0.8,0.3c0.4-0.8-0.6-0.3-0.3-0.9c0.2-0.3,0.3-0.5,0.4-0.8c0.1-0.3,0.3-0.6,0.4-0.9c0.2-0.6,0.4-1.2,0.6-1.8
	c0.4-1.2,0.8-2.3,1.5-2.9c0.1,0.2,0.3,0.2,0.4,0.3c0.4-0.4-0.3-1.3,0.5-1.2c0.1,0.2,0.1,0.5,0.3,0.5c-0.2-0.3-0.2-0.8-0.1-1.2
	c0.1-0.5,0.2-0.9-0.1-1.3l0.3,0.2c0.1-0.5,0.1-1,0.3-1.4c0.1-0.4,0.3-0.7,0.6-0.7c0,0.1,0,0.1,0.1,0.1c-0.3-0.9,0.4-1.1,0.5-2
	c1.1,0.5,0.7-1.7,1.8-1.2c0.6-0.8,0.7-1.5,0.8-2.2c0.1-0.7,0.2-1.3,0.8-1.8c0.1,0.5,0.7,0.3,0.7-0.1l-0.3-0.1
	c0.4-0.6,1.7-1.1,1.7-2.5c0.3-0.1,0.5,0.4,0.7,0.2l-0.4-0.6c0.3,0,0.5,0,0.6-0.1c0-0.7,0.1-1.2,0.5-1.7c0.3,0.1,0.7,0.5,0.9,0.1
	c0-0.4,0.3-0.9,0.6-1.4c0.2-0.3,0.4-0.5,0.6-0.8c0.2-0.2,0.4-0.5,0.7-0.7l0.1,0.3c0.5,0,0.7-0.6,1-1c0,0.2,0.3,0.3,0.5,0.5
	c-0.2-0.9,0.6-1.3,0.4-2c0,0,0.1,0,0.2-0.1c0.1-0.1,0.2-0.2,0.4-0.2c0.3-0.2,0.5-0.3,0.5-0.3l-0.2-0.2c0.4-0.2,0.8-0.5,1.1-0.8
	c0.3-0.3,0.6-0.6,1-0.9c0.6-0.6,1.3-1.1,2.1-1.3c1.2,0,1.2-2.2,2.5-2.4c0.3,0,0,0.7,0.4,0.7c-0.4-1.4,1.7-1.1,1.5-2.9l0.1,0.7
	l0.6-0.2c-0.1-0.3-0.3-0.3-0.2-0.7c0.5-0.3,0.8-0.1,1.2-0.4c0.2,0.3,0.3,0.8,0.7,0.2l-0.8-0.6c0.8-0.1,0.7-1.6,1.7-1.3
	c-0.1,0.1-0.2,0.1-0.1,0.2c0.5,0.4,0.5-0.4,1-0.4l-0.4-0.3c0.3-0.5,0.7,0.2,1-0.1l-0.4-0.4c0.2,0.2,0.5,0.2,0.6,0.2l0.4-0.9l0,0.2
	c0.2-0.3,0.9,0.2,0.8-0.7c-0.1,0-0.3,0.1-0.2-0.1c0.7,0.1,0.4-0.5,0.9,0.1c-0.1-0.6,0.2-1.1,0.7-1.6c0.5-0.4,1.1-0.8,1.7-1.1
	l0.2,0.4c-0.6,0.4,0.4,0.8,0.4,1.2c0.8-1,0.2-0.9,0.6-1.7c0.5,0,0.9-0.2,1.2-0.4c0.4-0.2,0.7-0.5,1.1-0.8c0.7-0.6,1.3-1.1,2-1
	c-0.3,0.4,0.2,0.6,0.6,0.5c0.2-0.5-0.4-0.4-0.3-0.9c0.7,0,1.3-0.5,1.8-0.9c0.6-0.4,1.1-0.9,1.7-1c-0.1,0.3-0.3,0.6,0,0.9
	c0.3-0.4,0.3-1.2,1-1.2c0,0.1,0,0.2,0,0.2c0.1-0.3,0.2-0.5,0.5-0.6c0.3-0.1,0.6-0.1,1-0.1c0.3,0,0.7,0,1-0.2
	c0.3-0.1,0.6-0.4,0.8-0.8l0.4,0.5l-0.6-0.1c0.7,0.4,0.3,0.4,0.9,0.9c0-0.1,0.2-0.4,0.3-0.6c0.1-0.2,0.2-0.4-0.1-0.5
	c0,0,0,0.1-0.1,0.1c0,0.1-0.1,0.1-0.1,0.1c0-0.5,0.4-0.6,0.9-0.7c0.5,0,0.9-0.1,1-0.4c0.3-0.1,0.6-0.1,1-0.2c0.2,0,0.3,0,0.5,0
	c0.2,0,0.4,0,0.5,0c0.7,0,1.3,0,1.8-0.1c-0.1,0-0.2,0.1-0.1,0.2c0.1-0.2,0.3-0.3,0.6-0.3c0.1,0,0.3,0,0.4,0c0.1,0,0.1,0,0.2,0
	c0.1,0,0.1,0,0.2,0c0.6,0.1,1.2,0.2,1.4,0.4c-0.1-0.2,0.1-0.2,0.2-0.2c-2.1-0.8-4.3-1.4-6.6-1.8
	C413.7,218.3,413.6,218.3,413.5,218.3z M358.9,252.2c0.5-0.8,0.7-1.5,0.9-2.2c0.1-0.3,0.1-0.6,0.3-0.9c0.1-0.1,0.1-0.3,0.2-0.4
	c0.1-0.1,0.2-0.3,0.3-0.4c0,0.4,0.6,0.1,0.6-0.2l-0.2,0c0.4-0.7,1.4-1.4,1.6-2.6c0.2-0.1,0.3,0.2,0.5,0.1l-0.2-0.5
	c0.2,0,0.4-0.1,0.5-0.2c0.1-0.6,0.2-1.1,0.6-1.7c0.2,0,0.5,0.3,0.7-0.1c0-0.4,0.3-0.9,0.7-1.4c0.4-0.5,0.8-1.1,1.2-1.5l0,0.2
	c0.4-0.1,0.6-0.7,0.9-1.1c0,0.2,0.2,0.2,0.3,0.4c0-0.7,0.7-1.2,0.6-1.8l0.9-0.9l-0.2-0.1c0.3-0.3,0.7-0.6,1-0.9
	c0.3-0.3,0.6-0.6,0.9-1c0.3-0.3,0.6-0.6,0.9-0.9c0.3-0.3,0.7-0.5,1-0.7c0.5-0.2,0.9-0.7,1.2-1.2c0.2-0.3,0.4-0.6,0.6-0.8
	c0.2-0.2,0.5-0.4,0.8-0.5c0.2-0.1-0.2,0.6,0.3,0.5c-0.1-0.5,0.4-0.9,0.9-1.2c0.5-0.3,0.5-0.9,1-1.4l-0.1,0.5c0,0,0.2-0.1,0.3-0.1
	c0.2-0.1,0.3-0.1,0.3-0.1c0-0.2-0.2-0.2-0.1-0.5c0.5-0.3,0.8-0.2,1.2-0.5c0.1,0.2,0.1,0.6,0.6,0.1l-0.6-0.4c0.8-0.2,1-1.4,1.9-1.2
	c-0.1,0.1-0.2,0.1-0.1,0.2c0.3,0.3,0.6-0.4,1-0.4l-0.3-0.2c0.4-0.4,0.6,0.1,0.9-0.1l-0.3-0.3c0.1,0.1,0.4,0.1,0.6,0.1l0.5-0.8l0,0.1
	c0.2-0.2,0.7,0.1,0.8-0.6c-0.1,0-0.3,0.1-0.2-0.1c0.6,0,0.5-0.5,0.9,0c0.1-1,1.6-1.8,2.8-2.3l0.1,0.3c-0.7,0.4,0.2,0.6,0.1,1
	c1-0.8,0.4-0.7,0.9-1.4c0.4-0.1,0.9-0.2,1.3-0.4c0.4-0.2,0.8-0.5,1.2-0.7c0.8-0.5,1.5-0.9,2.2-0.8c-0.3,0.3,0.1,0.5,0.4,0.4
	c0.3-0.4-0.3-0.3-0.1-0.8c0.3,0,0.7-0.1,1-0.2c0.3-0.1,0.7-0.3,1-0.5c0.6-0.4,1.3-0.7,1.9-0.8c-0.1,0.3-0.4,0.5-0.2,0.7
	c0.4-0.3,0.5-1.1,1.2-1c0,0.1,0,0.1,0,0.2c0.1-0.2,0.2-0.3,0.4-0.4c-10.3,1.3-20.3,5.9-28.3,13.9c-6.2,6.2-10.3,13.6-12.5,21.3
	C358.4,252.5,358.5,252.1,358.9,252.2z M375.1,302.3c0.4-0.1,0.7-0.2,0.9-0.5c0.3,0.1,0.3,0.3,0.7,0.3c-0.1-0.4,0.2-0.4,0.5-0.4
	c0.3,0,0.7,0,0.7-0.5c0,0,0.2,0.1,0.4,0.2c0.2,0.1,0.4,0.2,0.4,0.2c0-0.5,0.7-0.7,1-1c-0.1,0.3,0.5,0.3,0.9,0.1
	c-0.3-0.1,0.9-0.3,1.1-0.9l0.1,0.3c0.6-0.1,1.1-1.2,1.7-0.4c0.5-0.1,0.5-0.5,0.6-1l0.8,0.1l-0.1,0.1c0.5,0.9,0.6-0.3,1.1-0.1
	l-0.4-0.2c0.1-0.1,0.1-0.5,0.1-0.7l0.2,0.5c0.2-0.2,0.1-0.6,0.1-0.9c0.2,0.4,0.6,0.4,0.9,0.2c-0.3,0-0.1-0.2-0.1-0.2
	c-0.1-0.2,0.3-0.1,0.8-0.1c0.5,0,1,0,1.1-0.6c0-0.2,0-0.4-0.2-0.7c0.5,0.2,0.7,0,0.9-0.4c0.2-0.3,0.3-0.7,0.5-0.6
	c-0.1,0.4,0.1,0.5,0.2,0.9c0.4-0.2,0.6-0.2,0.5-0.9c0.6-0.1,0.4,0.7,0.9,1.1c0.7-0.4-0.7-0.9-0.2-1.2c0.6-0.1,1-0.5,1.4-0.8
	c0.2-0.2,0.4-0.4,0.6-0.6c0.2-0.2,0.3-0.5,0.5-0.7c0.3-0.4,0.7-0.9,1-1.2c0.2-0.2,0.4-0.3,0.6-0.4c0.2-0.1,0.5-0.2,0.7-0.2
	c0.1,0.2,0.4,0.4,0.6,0.7c0.6-0.1-0.4-1.7,0.7-1c0.1,0.2,0.1,0.6,0.3,0.8c-0.6-1.2,0.6-1.7,0-2.9l0.4,0.4c0.1-0.4,0.3-0.9,0.5-1.3
	c0.2-0.3,0.5-0.5,0.8-0.4c-0.1,0.1,0,0.1,0.2,0.3c-0.4-1.3,0.5-1,0.7-1.9c0.8,0.7,1,0.4,1.3,0c0.2-0.4,0.4-0.7,1.2-0.1
	c1.6-1,0.5-3.2,1.9-3.6c0.1,0.6,1,0.8,1,0.3l-0.4-0.3c0.4-0.5,2.1-0.4,1.9-2c0.3,0.1,0.7,0.8,1,0.7l-0.6-1c0.4,0.2,0.6,0.2,0.8,0.3
	c-0.1-0.9-0.1-1.5,0.4-1.9c0.4,0.3,1,0.9,1.2,0.6c-0.1-0.5,0.2-1,0.5-1.4c0.4-0.4,0.9-0.8,1.4-1.1l0.2,0.4c0.6,0.2,0.7-0.5,0.9-0.9
	c0.1,0.3,0.6,0.6,0.8,0.9c-0.5-1.2,0.4-1.4-0.1-2.3c0,0,0.3-0.1,0.5-0.3c0.3-0.1,0.5-0.3,0.5-0.3l-0.3-0.3c1.7-0.5,2.1-2.5,4-2.7
	c1.5,0.3,0.5-2.6,2-2.6c0.3,0.1,0.3,0.9,0.9,1c-0.6-1-0.2-1.3,0.3-1.6c0.4-0.3,0.9-0.7,0.3-1.8l0.4,0.9l0.7-0.1
	c-0.3-0.4-0.5-0.4-0.6-0.9c0.5-0.3,1,0,1.3-0.3c0.4,0.4,0.9,1.2,0.9,0.4l-1.3-1c1,0,0.1-2,1.6-1.3c-0.1,0.1-0.2,0.1,0,0.2
	c0.9,0.7,0.5-0.4,1-0.3l-0.6-0.4c0.2-0.6,1,0.5,1.2,0.2l-0.7-0.7c0.3,0.3,0.7,0.3,0.9,0.3l-0.2-1.2l0.1,0.2c0-0.3,1.1,0.3,0.5-0.7
	c-0.1,0-0.3,0.1-0.3-0.1c0.8,0.2,0.1-0.7,1.2,0.2c-1.1-1.7,0-2.6,0.8-3.4l0.5,0.5c-0.3,0.6,1.1,1,1.4,1.6c0.2-1.3-0.4-1.2-0.7-2.3
	c0.5-0.1,0.8-0.3,1-0.7c0.2-0.3,0.4-0.8,0.5-1.2c0.3-0.8,0.5-1.6,1.4-1.5c0.1,0.6,0.7,0.7,1.1,0.6c-0.2-0.7-0.8-0.4-1.2-1.2
	c0.7-0.2,0.9-0.8,1.1-1.5c0.2-0.7,0.3-1.3,0.8-1.6c0.2,0.4,0.3,0.8,0.8,1.1c0-0.3-0.3-0.7-0.4-1c-0.1-0.3-0.2-0.6,0.2-0.7
	c0.1,0.1,0.2,0.2,0.3,0.3c-0.6-0.9,0.1-1,0.6-1.2c0.3-0.1,0.6-0.3,0.7-0.5c0.1-0.1,0.1-0.3,0-0.5c-0.1-0.2-0.2-0.4-0.4-0.7l0.9,0.4
	c0,0-0.1,0-0.3,0.1c-0.1,0-0.3,0.1-0.3,0.1c1.1,0.2,0.7,0.3,1.9,0.6c-0.2-0.2-0.3-0.5-0.5-0.8c-0.2-0.3-0.4-0.6-0.7-0.5l0.2,0.4
	c-0.7-0.6-0.5-0.8-0.2-1.1c0.2-0.3,0.6-0.5,0.1-1c0-0.2,0.2-0.5,0.3-0.7c0.1-0.2,0.3-0.5,0.4-0.7c0.1-0.2,0.3-0.4,0.4-0.7
	c0-0.1,0.1-0.2,0.1-0.3c0-0.1,0-0.2,0-0.3c0.1,0.1,0.2,0.2,0.3,0.2c-0.2-0.2-0.4-0.4-0.4-0.6c0-0.1,0-0.2,0-0.3c0-0.1,0-0.3,0.1-0.4
	c0.2-0.5,0.5-0.9,0.8-1.1c-0.2-0.2-0.4-0.6-0.4-0.6c0.2-1.2,0.4-2.3,0.5-3.5c0.1-0.9,0.1-1.8,0-2.7c-0.8-1-1.6-1.9-2.4-2.8
	c-0.3,0.3-0.4,1.3,0.2,2.1l-0.4-0.5c-0.1,0.2,0.1,0.5,0.1,0.7l-0.4-0.4l0.1,1l-0.1-0.1c0,0-0.2,0.1-0.3,0.3
	c-0.2,0.1-0.3,0.3-0.3,0.3l-0.2-0.3c-0.5,0.7,0.5,2.1-0.3,2.4c-0.4-0.4-0.6-1-1.1-1.2l0.3,0.5c-0.1,0-0.3-0.1-0.4-0.1
	c-0.3,0.4,1,0.8,0.9,1c-0.2,0.3-2.4-1-2.4,0.1c-0.5-1.2-0.6-0.5-0.9-0.7c0.8,0.7,0.8,1.2,0.8,1.8c0,0.5-0.1,1,0.4,1.6
	c-1.6-0.6,0.2,1.1-0.2,1.5c-0.5-0.8-1.3-1.3-2.1-2c0.3,0.9-0.1,1.7,0.2,2.8c-1,0.2-1.1,0.7-1.2,1.3c-0.1,0.6-0.2,1.1-1.2,1.3
	c-0.3-0.4-0.8-1-0.8-1.2c-1.4-0.2,0.3,1-0.9,0.8c0.5,1,0.7,0.3,1.5,0.6l0.6,1l-0.8-0.7c-0.7,0.3,0.4,1,0.7,1.6
	c-0.3,0.4-0.8-0.6-1.2-0.6c-0.9,0.1-0.9,0.8-0.8,1.5c0.1,0.7,0.3,1.5-0.3,1.8l-0.2-0.5c-0.4,0-0.7,0.3-0.8,0.7
	c-0.1,0.4-0.2,0.9-0.1,1.3c-0.1,0,0.2,0.3,0.5,0.6c-0.4,0-0.6,0.5-0.9-0.1c0.9,1.5-0.4,1.6-0.4,2.6c0-0.4-0.2-0.8-0.9-1
	c-0.6,0.5-0.8,1.6-1.7,1.7c-0.5-0.8-0.6-1.1-1.4-1.6c0.7,1.2,1.6,2.1,1.3,3.2l-0.6-0.5c-0.6,0.3,0.4,2.2-1,1.3
	c0.3-0.5-0.2-0.8-0.6-1.5c0.3,0.7-0.1,1.3-0.3,1.5c-0.5-0.3-1.4,0.3-1.7-0.9c-0.3,0.1-0.3,0.4-0.4,0.6c0.1,0.5,1.4,1.5,1.2,2
	l-0.8-0.5c1.1,1.3-0.4,0.9,0.6,2.3l-0.3-0.3c0.3,0.7-0.6,0.5-0.7,1c-0.5-0.5-1.1-0.7-1.8-1.2c0.3,0.3,0,0.7,0.4,1.1l-0.6-0.4
	l0.1,0.9c-0.6,0.1-0.7-1.4-1.5-1.7c0.7,1,0.6,1.5,0.9,2.3c-0.9-1.2-0.7,0.7-1.6-0.4c-0.5,0.5,1.5,1.9,0.6,2.2l-0.5-0.9
	c0.3,1.4-0.1,2,0.2,2.8c0,0-0.1-0.1-0.2-0.1c0.3,0.7-1.2,0.7-0.5,1.8c-0.4-0.4-0.1-0.8-0.9-1c0.7,0.7-0.1,1.1,0.4,1.5
	c-0.3-0.1-0.7,0.2-1.2-0.5c-0.2,0.3,0.4,0.7,0.9,1c-1.2-0.6,0.3,1-1,0.3c-0.2-0.1,0-0.2,0.1-0.3c-0.3-0.2-0.9-0.6-0.9-0.3l1.1,1.2
	c-0.7,0.4-0.4,0.4-1.2,0.9c-0.1-0.7-0.4-0.3-0.6-0.8c-0.1,0.9,0.4,0.6,0.4,1.6l-1-1.4c-0.3,0.7,1.6,1.8,0.6,2.1
	c-0.4-0.7-2.1-1.6-2-2c-0.9-0.4-1.1,1.1-1.4,0.4c-1.1,0.5,1.5,3.1,0,2.9l-0.7-0.4c0.3,0.5,0.4,0.8,0.4,1c0-0.2-0.2-0.4-0.7-0.9
	c-0.2,1-0.4,0.9,0.3,2.2c-0.3-0.5-0.8-1.6-1.4-1.6c-0.4-0.2-0.3,0.3-0.4,0.4c0.1,0.5,1,1.1,1,1.8c-0.4,0.3,0.3,1.8-0.8,1l0.5-0.1
	l-0.7-1.2c-0.3,0.7-1,0.9-0.6,1.7c-0.1-0.1-0.2-0.1-0.3-0.2c0.5,1.7-1.3-1-1.4,0.4c0.1,0.6,0.2,1.4,0.4,1.8l-0.6-1.5l-0.3,1.1
	l0.8,0.7c-1.2-0.4-2.3,0-3.2,0.1c-0.3,0.7-0.4,1.6,0,2.3c-1.4-0.2-0.9-2.1-2.5-2.8c0.1,1,0.2,1.4,0.1,1.7c-0.1,0.3-0.3,0.4-0.9,0.7
	c0.3,0.4,1.2,1,1,1.5c-0.4,0-1.4-0.1-1,0.9c0-0.1-0.1-0.1-0.1-0.2c0.8,1.8-0.9,0.9-0.5,2.1c0-0.1-0.1-0.2-0.2-0.3l-0.2,1.4l-1.1-0.8
	c0.3,0.9-0.2,0.4-0.2,1c-0.2-0.5-0.2-1.3-0.8-1.5c0.8,1.1-0.6,0.9-0.1,1.3l-0.2,0.8l-1-1.1l-0.5,1.5c0.5,0.2,0.5,0.5,1,0.8
	c0.3,0.7-1.3-0.1-1.2,0.9l-0.1-0.4c-0.5-0.3-0.9-0.2-1.2,0c-0.3,0.2-0.4,0.6-0.4,1.1l0.6,0.2c-1.2-0.3-0.6,1-1.5,1
	c-0.1-0.4-0.2-0.8-0.5-1c0.2,1.1-0.6,1.5-1.1,1.9c0,0-0.1-0.1-0.1-0.1c-0.5-0.1-0.8-0.4-1.3-1.2c0.5,0.1,0.4-0.3,0.1-0.8
	c-1.8-0.3,1.3,2.4,0,2.2c0-0.3-0.4-0.7-0.6-0.8l0.3,1.1l-0.7-1.3c-0.5-0.4-0.3,0.4-0.4,0.6c0,0-0.8-0.8-0.8-1.3
	c0.1,0.6-0.7,0-0.3,0.9l0.7,0.5c0.1,0.6-0.6-0.4-0.5,0.4c-0.4-0.4-0.1-0.9-0.6-1.1c-0.4,0.2,0.1,1.2,0.4,1.7c0.2-0.1,0-0.2,0-0.5
	c1.1,1.5,0.2,0.9,0.7,2.3l-0.6-1.3l-0.6,0.7c-0.4-1.1-0.9-1.2-1.4-2.4c0.1,0.8,0.3,1.9,0.3,2.8c0,0.4,0,0.9-0.1,1.2
	c-0.1,0.3-0.2,0.5-0.4,0.6l-0.5-1.7c-0.7,0.2-0.4,1.4,0,2.6c-1.2-1.8-0.9-1.5-1.8-3.6c0.3,1-1.4,0-0.4,1.3l0.3,0.3
	c-0.2-0.1-0.2,0.6-0.4,0.7l-0.7-1.9c-0.2,0.6-0.3,2.2,0.5,2.6c-0.1,1.5-1.4-1.3-1.8-1.2c-0.3,1.2,0.5,1.2,0.8,1.9
	c-0.2,0-0.3,0.1-0.5,0.1c0,0,0,0,0,0c-0.1,0.1-0.2,0.1-0.3,0.1c-0.3,0.1-0.5,0.3-0.7,0.4c0,0,0,0,0,0c-0.6-0.1-1.6-1-1.5,0.1
	l0.4,0.2c-0.8-0.1-1.5,0.2-2,0.7C372.5,300.3,373.8,301.3,375.1,302.3z M380.2,303.6c-0.3,0.5-1.4-0.1-1.1,0.6l0.1,0.2
	c-0.1-0.1-0.4,0.1-0.7,0.2c0.6,0.3,1.1,0.6,1.7,0.9C379.9,304.5,380,304.6,380.2,303.6z M377.8,304.1c0.2,0.1,0.3,0.2,0.5,0.3
	c0-0.1,0.1-0.2,0.2-0.3c0.1-0.2,0.2-0.4,0.2-0.4C378.4,303.7,378.1,303.9,377.8,304.1z M382.3,305.5c0.3,0.1,0.2,0.2,0.7,0.2
	c0-0.2,0.2-0.2,0.6-0.2c0.3,0,0.7,0,0.8-0.3c0,0,0.2,0.1,0.4,0.1c0.2,0.1,0.4,0.1,0.4,0.1c0.1-0.3,0.8-0.4,1.2-0.6
	c-0.2,0.2,0.4,0.2,0.9,0.1c-0.2,0,0.9-0.2,1.2-0.6l0.1,0.2c0.3,0,0.6-0.3,0.9-0.4c0.3-0.1,0.6-0.2,0.8,0c0.4-0.1,0.6-0.4,0.7-0.7
	l0.8,0l-0.1,0.1c0.2,0.5,0.6-0.3,1.1-0.2l-0.3-0.1c0.1-0.1,0.2-0.3,0.3-0.4l0,0.3c0.2-0.1,0.3-0.4,0.4-0.6c0,0.3,0.5,0.2,0.8,0.1
	c-0.3,0,0-0.1,0-0.1c0-0.1,0.4-0.1,0.8,0c0.4,0,1,0,1.3-0.3c0.1-0.1,0.1-0.3,0-0.4c0.7,0.3,1.3-0.7,1.7-0.5
	c-0.3,0.2-0.1,0.3-0.1,0.6c0.5-0.1,0.6-0.1,0.8-0.6c0.5,0,0.1,0.5,0.5,0.7c0.8-0.2-0.3-0.6,0.2-0.8c1.1-0.2,2.1-0.8,3-1.4
	c0.9-0.6,1.8-1.2,2.7-1.2c0,0.2,0.2,0.3,0.3,0.5c0.5-0.1,0.2-1.1,1-0.7c0,0.2-0.1,0.4,0,0.5c-0.2-0.8,1.1-1.2,0.9-2l0.2,0.3
	c0.1-0.2,0.3-0.3,0.4-0.5c0.1-0.2,0.3-0.3,0.4-0.4c0.3-0.2,0.6-0.4,0.8-0.3c-0.1,0.1,0,0.1,0.1,0.2c0-0.9,0.7-0.7,1.2-1.3
	c0.9,0.9,1.2-1,2.1-0.3c0.4-0.2,0.7-0.5,0.9-0.7c0.1-0.1,0.2-0.3,0.3-0.4c0.1-0.1,0.1-0.3,0.2-0.4c0.3-0.5,0.5-1,1.1-1.3
	c-0.1,0.4,0.6,0.5,0.7,0.1l-0.3-0.2c0.5-0.4,1.8-0.6,2-1.8c0.3,0,0.4,0.5,0.7,0.4l-0.3-0.6c0.3,0.1,0.5,0.1,0.6,0.1
	c0.1-0.6,0.2-1.1,0.7-1.5c0.3,0.2,0.6,0.6,0.8,0.3c0.1-0.7,1.2-1.7,2.1-2.2l0,0.3c0.5,0.1,0.6-0.5,0.9-0.9c0,0.2,0.3,0.4,0.4,0.6
	c-0.1-0.4,0.1-0.7,0.2-1c0.1-0.3,0.3-0.5,0.2-0.8l0.9-0.6l-0.2-0.2c1.5-0.7,2.1-2.3,3.5-2.8c0.3,0,0.5-0.2,0.6-0.4
	c0.1-0.2,0.2-0.5,0.3-0.8c0.2-0.6,0.4-1.1,0.9-1.3c0.3,0,0.1,0.6,0.5,0.6c-0.2-0.3-0.2-0.6-0.1-0.8c0.1-0.2,0.3-0.4,0.5-0.6
	c0.4-0.4,0.6-0.9,0.6-0.9l0.5-0.3c-0.2-0.3-0.3-0.2-0.4-0.6c0.4-0.4,0.7-0.2,1-0.6c0.3,0.2,0.5,0.8,0.6,0.1l-0.9-0.5
	c0.4-0.1,0.4-0.5,0.5-0.9c0.1-0.4,0.2-0.7,0.7-0.6c-0.1,0.1-0.1,0.1,0,0.2c0.6,0.3,0.4-0.5,0.8-0.6l-0.4-0.2
	c0.2-0.5,0.7,0.1,0.9-0.2l-0.5-0.4c0.2,0.1,0.5,0.1,0.6,0c0,0,0-0.2,0-0.5c0-0.2,0-0.5,0-0.5l0.1,0.2c0.1-0.3,0.8,0,0.4-0.8
	c-0.1,0-0.2,0.2-0.2,0c0.6-0.1,0.1-0.6,0.8-0.2c-0.3-0.6-0.3-1.1-0.1-1.7c0.2-0.5,0.5-1,0.8-1.5l0.3,0.3c-0.3,0.6,0.7,0.6,0.9,1
	c0.1-0.6,0-0.8-0.1-1c-0.1-0.2-0.2-0.4-0.3-0.8c0.6-0.4,0.9-1.3,1.1-2.1c0.2-0.8,0.3-1.6,0.9-1.8c0.1,0.5,0.5,0.4,0.7,0.2
	c-0.2-0.5-0.5-0.1-0.7-0.7c0.4-0.4,0.6-1,0.7-1.7c0.1-0.7,0.2-1.3,0.5-1.7c0.1,0.3,0.2,0.7,0.5,0.8c-0.1-0.5-0.6-1.2-0.1-1.5
	c0,0.1,0.1,0.1,0.2,0.2c-0.4-0.6,0.1-1,0.5-1.4c0.4-0.4,0.8-0.9,0.4-1.9l0.5,0.2l-0.4,0.3c0.7,0,0.5,0.1,1.2,0.2
	c0-0.1-0.1-0.2-0.1-0.3c0-0.1-0.1-0.3-0.2-0.4c-0.1-0.2-0.2-0.4-0.4-0.3l0.1,0.3c-0.4-0.4-0.3-0.7-0.1-1c0.2-0.3,0.4-0.6,0.1-1
	c0-0.3,0.1-0.5,0.2-0.8c0.1-0.3,0.2-0.5,0.3-0.8c0.2-0.5,0.3-1,0.3-1.4c0,0.1,0.1,0.2,0.2,0.1c-0.3-0.3-0.3-0.8-0.2-1.3
	c0.1-0.5,0.3-0.9,0.4-1.1c-0.1-0.2-0.2-0.5-0.2-0.5c0.2-2.3,0.2-4.6-0.2-6.9c0-0.4,0.1,0.6,0.2,0.2c-0.1-0.3-0.2-0.5-0.2-0.7
	c0-0.2,0-0.4-0.1-0.7c0.1,0.2,0.1,0,0.1-0.1c-0.7-1.3-1.6-2.5-2.4-3.7l-0.2,0l0.3,0.9l-0.1-0.1l-0.1,1l-0.2-0.2c0,1,0.8,1.8,0.6,2.6
	c-0.3-0.1-0.6-0.7-0.8-0.5l0.2,0.3c0,0.1-0.2,0.1-0.2,0.1c0,0.6,0.7,0.2,0.7,0.5c0,0.2-0.3,0.4-0.7,0.6c-0.3,0.2-0.6,0.5-0.4,1
	c-0.6-0.9-0.4-0.1-0.7-0.1c0.6,0.2,0.8,0.8,0.9,1.3c0.2,0.5,0.3,1.1,0.7,1.4c-0.5,0.1-0.4,0.4-0.2,0.7c0.2,0.3,0.5,0.7,0.4,1.1
	c-0.5-0.6-1.1-0.8-1.8-1.1c0.4,0.7,0.3,1.8,0.6,2.9c-0.4,0.3-0.5,0.6-0.7,0.9c-0.1,0.3-0.1,0.6-0.2,0.9c0,0.3-0.1,0.6-0.2,0.9
	c-0.1,0.3-0.3,0.6-0.7,0.8c-0.2-0.3-0.7-0.9-0.7-1.1c-0.6,0.1-0.5,0.3-0.4,0.5c0.1,0.2,0.2,0.5-0.3,0.5c0.4,0.9,0.6,0.1,1.3,0.3
	l0.5,0.9l-0.7-0.5c-0.6,0.5,0.3,1,0.6,1.5c-0.2,0.5-0.7-0.5-1.1-0.4c-0.8,0.4-0.8,1-0.7,1.7c0.1,0.7,0.3,1.5-0.2,2l-0.2-0.4
	c-0.8,0.2-0.9,1.5-0.7,2.3c-0.1,0,0.2,0.3,0.5,0.5c-0.4,0.1-0.5,0.7-0.9,0.1c0.5,0.7,0.4,1.2,0.2,1.6c-0.2,0.4-0.5,0.8-0.4,1.4
	c-0.1-0.4-0.3-0.8-0.9-0.9c-0.5,0.6-0.7,2-1.6,2.3c-0.6-0.8-0.7-1.1-1.5-1.6c0.7,1.2,1.7,2,1.5,3.3l-0.6-0.5
	c-0.2,0.1-0.2,0.3-0.2,0.6c0,0.2,0,0.5,0,0.7c0,0.4-0.1,0.7-0.8,0.3c0.4-0.6-0.3-0.9-0.7-1.7c0.5,0.7,0,1.6-0.2,1.8
	c-0.3-0.1-0.7,0-1,0c-0.3,0-0.7-0.2-0.8-0.8c-0.3,0.1-0.3,0.4-0.5,0.7c0.1,0.5,1.5,1.6,1.2,2.2l-0.9-0.5c1.1,1.3-0.4,1,0.6,2.5
	l-0.3-0.3c0.4,0.8-0.7,0.6-0.7,1.1c-0.5-0.5-1.1-0.8-1.9-1.3c0.3,0.3,0,0.7,0.4,1.2l-0.6-0.5l0.1,1c-0.7,0.1-0.7-1.6-1.5-1.8
	c0.7,1.1,0.6,1.7,0.9,2.6c-0.9-1.4-0.8,0.7-1.7-0.4c-0.5,0.5,1.5,2.1,0.6,2.4l-0.5-0.9c0.2,1.5-0.1,2.2,0.1,3.1
	c0-0.1-0.1-0.1-0.2-0.2c0.3,0.8-1.3,0.8-0.6,2c-0.4-0.4,0-0.9-0.9-1.1c0.8,0.9-0.2,1.3,0.5,1.7c-0.3-0.3-0.8,0.2-1.5-0.6
	c-0.2,0.3,0.4,0.8,0.9,1.1c-1.3-0.7,0.2,1.2-1.1,0.3c-0.2-0.2,0-0.2,0.1-0.4c-0.3-0.2-0.9-0.7-1-0.3l1.2,1.3c-0.8,0.5-0.5,0.4-1.4,1
	c-0.1-0.7-0.5-0.3-0.7-0.9c-0.2,0.9,0.4,0.7,0.4,1.8l-1-1.6c-0.3,0.8,1.7,2,0.6,2.3c-0.4-0.8-2.2-1.8-2.1-2.2
	c-0.9-0.4-1.3,1.2-1.6,0.4c-1.2,0.5,1.5,3.4-0.1,3.1l-0.8-0.4c0.4,0.5,0.4,0.9,0.4,1.1c0-0.2-0.2-0.5-0.7-0.9c-0.3,1-0.5,1,0.2,2.4
	c-0.3-0.5-0.8-1.8-1.5-1.8c-0.4-0.2-0.3,0.3-0.5,0.4c0.1,0.5,1.1,1.2,1,1.9c-0.4,0.3,0.2,1.9-1,1l0.6-0.1l-0.8-1.2
	c-0.4,0.8-1.2,1-0.8,1.8c-0.1-0.1-0.2-0.1-0.3-0.2c0.5,1.8-1.4-1-1.6,0.4c0.1,0.6,0.2,1.5,0.3,1.8l-0.6-1.6l-0.4,1.1l0.8,0.8
	c-1.3-0.4-2.6,0-3.5,0.1c-0.4,0.7-0.6,1.6-0.2,2.3c-0.8-0.1-1-0.6-1.2-1.2c-0.2-0.6-0.5-1.2-1.3-1.6c0,1,0.1,1.4,0,1.7
	c-0.1,0.3-0.3,0.4-1.1,0.8c0.3,0.4,1.2,0.9,0.9,1.5c-0.4,0-1.5,0-1.2,0.9c0-0.1-0.1-0.1-0.1-0.2c0.6,1.7-1,0.9-0.8,2
	c0-0.1-0.1-0.1-0.2-0.3c0,0-0.1,0.3-0.2,0.6c0,0.2-0.1,0.3-0.1,0.4c0,0.1-0.1,0.2-0.1,0.2l-1.1-0.7c0.1,0.8-0.3,0.4-0.4,0.9
	c-0.2-0.5,0-1.2-0.7-1.4c0.8,1-0.8,0.9-0.4,1.2c0,0-0.1,0.2-0.2,0.4c0,0.1-0.1,0.2-0.1,0.3c0,0.1-0.1,0.1-0.1,0.1l-0.9-1
	c0,0-0.2,0.3-0.4,0.7c-0.2,0.3-0.4,0.7-0.4,0.7c0.5,0.1,0.5,0.4,0.9,0.6c0.1,0.3-0.3,0.3-0.7,0.3c-0.4,0-0.8,0.1-0.9,0.5l0-0.3
	c-1-0.5-1.9,0.2-2.1,0.9l0.6,0.2c-0.6-0.1-0.9,0.1-1.1,0.3c-0.2,0.2-0.4,0.5-1,0.5c0-0.3,0-0.6-0.3-0.8c-0.1,0.4-0.3,0.7-0.7,0.9
	c-0.2,0.1-0.4,0.2-0.6,0.3c-0.2,0.1-0.4,0.1-0.6,0.2c0,0,0-0.1-0.1-0.1c-0.5-0.1-0.8-0.3-1-0.9c0.5,0.1,0.5-0.2,0.4-0.6
	c-1.9-0.3,0.6,1.7-0.8,1.6c0.1-0.2-0.1-0.5-0.3-0.6l0,0.7l-0.3-0.9c-0.4-0.3-0.5,0.2-0.7,0.4l0.1,0.1c-0.3-0.3-0.7-0.6-0.4-1
	c-0.2,0.4-0.8,0-0.7,0.6l0.5,0.3c-0.2,0.4-0.6-0.3-0.7,0.3c-0.2-0.3,0.2-0.6-0.2-0.7c-0.5,0.1-0.4,0.8-0.3,1.1
	c0.2,0,0.1-0.1,0.2-0.3c0.6,1-0.1,0.6-0.2,1.4l-0.1-0.8l-1,0.4c0.1-0.7-0.4-0.8-0.4-1.5c-0.2,0.5-0.5,1.1-0.9,1.6
	c-0.2,0.2-0.4,0.5-0.7,0.6c-0.3,0.1-0.5,0.2-0.9,0.2c0,0,0.1-0.2,0.2-0.4c0.1-0.2,0.2-0.5,0.2-0.5c-0.9,0-1.2,0.6-1.5,1.1
	c0.2,0.1,0.5,0.2,0.7,0.3C381.3,305.7,381.8,305.7,382.3,305.5z M407.3,310.2c0,0,0.1-0.1,0.1-0.2c-0.2,0.2-0.4,0.1-0.6,0.2
	C406.9,310.3,407.1,310.2,407.3,310.2z M408.9,310c0.2,0,0.5-0.1,0.7-0.1c0,0,0,0,0,0C409.2,309.8,409,309.9,408.9,310z
	 M387.1,308.3c0.1-0.1,0.2-0.1,0.3-0.2c0.1-0.1,0.2-0.2,0.2-0.2c0,0.1-0.1,0.2-0.1,0.3c0.4,0,0.8-0.1,1.2-0.1c0.2,0,0.4,0,0.7,0.1
	c0.2,0,0.4,0.1,0.7,0.2c0.2,0.3,0,0.3-0.2,0.3c-0.2,0-0.3,0.1-0.2,0.3c0,0,0.1,0,0.1,0c0.5-0.3,1-0.2,1.5-0.5
	c0.3,0.2,0.9,0.4,1.3,0.3c-0.1,0-0.2,0-0.1,0.1c0.4,0.2,0.5-0.3,0.9-0.3l0.2,0.6c0.4,0,0.8,0,1.1-0.1c0.3-0.1,0.6-0.1,0.9-0.1l0,0.1
	c0.3,0.1,0.6,0.1,0.8,0.1c0.1,0,0.3,0,0.4-0.1c0.1,0,0.2-0.1,0.4-0.2c0.3,0.1,0.2,0.3,0.6,0.5c-0.1-0.4,0.2-0.4,0.5-0.3
	c0.3,0,0.7,0.1,0.8-0.3l0.8,0.5c0.1-0.4,0.8-0.5,1.1-0.6c-0.1,0.2,0.5,0.3,0.9,0.2c-0.2-0.1,0.9-0.1,1.2-0.5l0.1,0.2
	c0.6,0,1.3-0.8,1.7-0.2c0.5,0,0.6-0.3,0.7-0.6l0.7,0.1l-0.1,0c0.2,0.6,0.6-0.2,1.1-0.1l-0.3-0.1c0.1-0.1,0.2-0.3,0.3-0.4l0,0.3
	c0.2-0.1,0.2-0.4,0.3-0.5c0,0.3,0.5,0.2,0.8,0.2c-0.3,0,0-0.1,0-0.1c-0.1-0.3,1.4,0.3,2-0.4c0.1-0.1,0.1-0.2,0-0.4
	c0.7,0.3,1.3-0.6,1.7-0.5c-0.3,0.2-0.1,0.3-0.1,0.5c0.5-0.1,0.6-0.1,0.8-0.5c0.5,0,0.1,0.4,0.4,0.6c0.8-0.2-0.3-0.5,0.3-0.7
	c0.1,0,0.3,0,0.4-0.1c0.1,0,0.3-0.1,0.4-0.1c0.2-0.1,0.5-0.2,0.7-0.3l0.3-0.2l0.2-0.1l0.1-0.1c0.2-0.1,0.3-0.3,0.5-0.4
	c0.7-0.6,1.4-1.4,2.3-1.6c0,0.1,0.2,0.2,0.3,0.3c0.2-0.1,0.3-0.4,0.4-0.6c0.1-0.2,0.2-0.4,0.5-0.3c0,0.1-0.1,0.4,0,0.4
	c0-0.2,0-0.3,0.1-0.5c0.1-0.2,0.3-0.3,0.4-0.5c0,0,0.1-0.1,0.1-0.1c0,0,0,0,0,0c0,0,0-0.1,0-0.1c0,0,0-0.1,0.1-0.1
	c0.1-0.2,0.1-0.3,0.1-0.5l0.2,0.2c0.4-0.6,1-1.4,1.5-1.3c-0.1,0.1,0,0.1,0.1,0.1c0.1-0.7,0.7-0.7,1.1-1.3c0.8,0.5,1.2-1.1,1.9-0.6
	c0.7-0.5,1.1-1,1.4-1.5c0.3-0.5,0.6-0.9,1.2-1.2c-0.1,0.4,0.5,0.3,0.6,0l-0.2-0.1c0.5-0.4,1.7-0.7,2-1.6c0.2,0,0.3,0.3,0.5,0.2
	l-0.1-0.5c0.2,0,0.4,0,0.5,0c0.2-0.5,0.3-0.9,0.7-1.2c0.2,0.1,0.4,0.3,0.6,0.1c0.1-0.6,1-1.5,1.6-2.2l0,0.2c0.4,0,0.5-0.6,0.7-1
	c0,0.1,0.3,0.2,0.4,0.3c-0.1-0.7,0.4-1.1,0.2-1.6l0.7-0.8l-0.2-0.1c0.3-0.3,0.5-0.6,0.7-0.9c0.1-0.2,0.2-0.3,0.3-0.5
	c0.1-0.2,0.2-0.3,0.3-0.5c0.1-0.1,0.1-0.2,0.2-0.3c0.1-0.1,0.1-0.2,0.1-0.2c0.1-0.1,0.2-0.3,0.3-0.4c0.2-0.3,0.4-0.5,0.7-0.8
	c0.4-0.2,0.5-0.7,0.6-1.3c0.1-0.6,0.2-1.1,0.6-1.5c0.2-0.1,0.1,0.5,0.4,0.4c-0.3-0.5,0-0.9,0.2-1.3c0.2-0.4,0.5-0.9,0.2-1.6l0.2,0.5
	c0,0,0.1-0.1,0.2-0.2c0.1-0.1,0.2-0.2,0.2-0.2c-0.1-0.2-0.3-0.1-0.3-0.4c0.3-0.5,0.5-0.5,0.6-0.8c0.2,0.1,0.4,0.5,0.5-0.2l-0.6-0.2
	c0.5-0.5,0-1.6,0.7-1.8c0,0.1-0.1,0.2,0,0.2c0.4,0.1,0.2-0.6,0.5-0.8l-0.3,0c0.1-0.5,0.5-0.1,0.6-0.5l-0.4-0.2
	c0.2,0.1,0.3-0.1,0.4-0.2l-0.1-0.9l0.1,0.1c0-0.3,0.5-0.3,0.2-0.9c-0.1,0-0.1,0.2-0.1,0c0.4-0.3,0-0.6,0.6-0.4
	c-0.1-0.2-0.2-0.5-0.2-0.7c0-0.3,0-0.6,0-0.8c0-0.3,0.1-0.6,0.2-0.9c0.1-0.3,0.2-0.6,0.2-0.8l0.2,0.2c-0.1,0.7,0.6,0.4,0.7,0.7
	c0-1.2-0.3-0.8-0.5-1.7c0.4-0.6,0.5-1.4,0.5-2.3c0-0.8,0.1-1.6,0.5-1.9c0.1,0.5,0.4,0.3,0.6,0c-0.2-0.5-0.4,0-0.7-0.5
	c0.6-0.9,0.1-2.7,0.4-3.6c0.2,0.3,0.3,0.6,0.6,0.6c-0.1-0.5-0.7-1-0.4-1.5c0,0.1,0.1,0.1,0.2,0.1c-0.4-0.5-0.1-1,0.1-1.5
	c0.2-0.5,0.4-1.1-0.2-1.9l0.5,0c0,0-0.1,0.1-0.1,0.2c-0.1,0.1-0.1,0.2-0.1,0.2c0.6-0.2,0.4,0,1-0.1c-0.2-0.2-0.6-1.2-0.9-0.9
	l0.2,0.3c-0.9-0.6,0.2-1.5-0.5-2.1c0-0.5,0.1-1.1,0.1-1.6c0.1-0.5,0.1-1.1,0.1-1.4c0.1,0.1,0.2,0.2,0.2,0.1c-0.7-0.6-0.3-2,0-2.4
	c-0.2-0.2-0.3-0.5-0.3-0.5c0-1.2-0.2-2.4-0.4-3.6c-0.6-1.4-1.4-2.8-2.2-4.2c0,0,0,0,0,0.1c0,0,0.1,0.3,0.2,0.6
	c0.1,0.3,0.2,0.6,0.2,0.6l-0.1,0.1c0,0.5,0.3,1.4,0.6,1.7l-0.2-0.1c0,0.3,0.1,0.3,0.2,0.5l-0.1,0l0.3,0.8l0-0.1c0,0,0,0.3,0,0.5
	c0,0.3,0,0.5,0,0.5l-0.1-0.2c0.1,1,0.6,1.6,0.5,2.4c-0.2-0.1-0.4-0.6-0.5-0.4l0.2,0.3c0,0.1-0.1,0.1-0.1,0.1c0,0.6,0.4,0.1,0.4,0.4
	c0,0.5-0.8,0.6-0.6,1.7c-0.4-0.8-0.3-0.1-0.4-0.1c0.2,0.1,0.3,0.2,0.4,0.5c0.1,0.2,0.1,0.5,0.2,0.7c0.1,0.5,0.1,1,0.4,1.3
	c-0.3,0.2-0.3,0.4-0.1,0.7c0.1,0.3,0.3,0.6,0.3,1c-0.3-0.5-0.6-0.6-1.1-0.8c0.1,0.3,0.1,0.8,0.2,1.2c0,0.2,0,0.5,0,0.7
	c0,0.2,0,0.5,0.1,0.7c-0.2,0.4-0.4,0.7-0.5,1c-0.1,0.3-0.1,0.6-0.2,0.9c-0.1,0.6-0.1,1.2-0.7,1.8c-0.1-0.2-0.4-0.6-0.4-0.8
	c-0.8,0.5,0.1,0.8-0.5,1.2c0.3,0.7,0.4-0.1,0.9-0.1l0.3,0.7l-0.5-0.3c-0.4,0.6,0.2,0.8,0.4,1.2c-0.2,0.5-0.4-0.2-0.7,0
	c-0.5,0.6-0.5,1.2-0.5,1.8c0.1,0.6,0.2,1.2-0.1,1.9l-0.2-0.3c-0.5,0.4-0.6,1.7-0.4,2.3c0,0,0.2,0.2,0.3,0.3
	c-0.3,0.2-0.4,0.8-0.6,0.4c0.6,1-0.2,1.7-0.2,2.7c0-0.3-0.2-0.6-0.6-0.6c-0.1,0.2-0.2,0.4-0.2,0.6c-0.1,0.2-0.2,0.5-0.2,0.7
	c-0.2,0.5-0.4,0.9-0.7,1.1c-0.3-0.6-0.4-0.7-0.9-0.9c0.4,0.8,1.1,1.3,0.8,2.4l-0.4-0.3c-0.5,0.6,0.1,1.9-0.8,1.6
	c0.3-0.6-0.1-0.7-0.4-1.3c0.1,0.3,0.1,0.6,0,0.9c-0.1,0.3-0.3,0.6-0.3,0.7c-0.4-0.1-1.1,0.8-1.2-0.2c-0.2,0.2-0.3,0.5-0.4,0.7
	c0,0.4,0.9,0.9,0.7,1.5l-0.6-0.1c0.7,0.8-0.4,1,0.1,1.9l-0.2-0.1c0.2,0.6-0.6,0.7-0.7,1.1c-0.3-0.3-0.8-0.3-1.2-0.6
	c0.2,0.2-0.1,0.6,0.2,0.8L433,279l0,0.8c-0.5,0.3-0.3-1.1-0.9-1.1c0.4,0.7,0.3,1.2,0.4,1.9c-0.5-0.9-0.7,0.8-1.2,0.1
	c-0.5,0.5,0.9,1.3,0.1,1.8l-0.3-0.6c0,0.6-0.1,1-0.2,1.4c-0.1,0.4-0.2,0.7-0.2,1c0,0-0.1,0-0.1-0.1c0.1,0.6-1.2,0.9-0.8,1.7
	c-0.2-0.3,0.1-0.7-0.5-0.7c0.5,0.5-0.4,1.1,0.1,1.2c-0.2-0.2-0.7,0.3-1-0.2c-0.2,0.3,0.2,0.6,0.5,0.7c-0.9-0.3,0,0.9-0.9,0.4
	c-0.1-0.1,0.1-0.2,0.1-0.3c-0.2-0.1-0.6-0.3-0.7-0.1l0.7,0.8c-0.7,0.5-0.5,0.4-1.3,1c0.1-0.6-0.3-0.2-0.4-0.6
	c-0.3,0.8,0.2,0.5-0.1,1.3l-0.5-1c-0.4,0.7,0.9,1.3,0,1.7c-0.2-0.6-1.4-1-1.2-1.4c-0.7-0.2-1.3,1.1-1.3,0.6
	c-1.1,0.6,0.5,2.3-0.8,2.4l-0.6-0.2c0.2,0.3,0.2,0.6,0.1,0.8c0-0.1,0-0.3-0.4-0.6c-0.4,0.8-0.6,0.8-0.3,1.8
	c-0.1-0.4-0.3-1.2-0.8-1.1c-0.3-0.1-0.3,0.3-0.5,0.4c-0.1,0.4,0.6,0.7,0.4,1.3c-0.4,0.3-0.3,1.4-1,0.9l0.5-0.2l-0.3-0.8
	c-0.3,0.3-0.5,0.5-0.8,0.8c-0.2,0.2-0.4,0.4-0.3,0.7c-0.1,0-0.1-0.1-0.2-0.1c0,1.3-0.9-0.6-1.4,0.5c-0.1,0.4-0.2,1.1-0.2,1.3
	l-0.1-1.1c0,0-0.2,0.2-0.3,0.4c-0.1,0.1-0.2,0.2-0.2,0.3c-0.1,0.1-0.1,0.1-0.1,0.1l0.5,0.5c-1-0.2-2.2,0.3-3,0.4
	c-0.1,0.1-0.3,0.3-0.4,0.4c-0.1,0.1-0.2,0.3-0.3,0.4c-0.2,0.3-0.2,0.6-0.2,0.8c-0.6,0-0.7-0.4-0.7-0.8c0-0.4,0-0.8-0.6-1
	c-0.7,1.4-0.2,1.2-1.7,1.8c0.1,0.3,0.8,0.6,0.3,1c-0.3,0-1.3,0-1.3,0.7c0,0,0-0.1,0-0.1c0,0.6-0.3,0.7-0.6,0.8
	c-0.2,0.1-0.3,0.1-0.5,0.2c-0.1,0.1-0.2,0.2-0.3,0.3c0-0.1-0.1-0.1-0.1-0.2c0,0-0.2,0.2-0.4,0.4c-0.2,0.2-0.4,0.4-0.4,0.4l-0.7-0.4
	c-0.1,0.5-0.3,0.3-0.6,0.6c0-0.3,0.4-0.8-0.1-0.9c0.3,0.6-1,0.6-0.7,0.8c0,0,0,0-0.1,0.1c-0.1,0-0.1,0.1-0.2,0.2
	c-0.1,0.1-0.3,0.2-0.3,0.2l-0.5-0.6c0,0-0.3,0.2-0.6,0.4c-0.3,0.2-0.6,0.4-0.6,0.4c0.4,0.1,0.3,0.3,0.6,0.4c-0.1,0.4-1.3,0-1.6,0.5
	c0,0,0,0,0-0.1c0-0.1,0-0.1,0-0.1c-0.4-0.1-0.8-0.1-1.2,0c-0.4,0.1-0.8,0.3-1,0.6c0,0,0.1,0,0.3,0.1c0.1,0,0.1,0,0.2,0
	c0.1,0,0.1,0,0.1,0c-0.5-0.1-0.8,0-1.1,0.1c-0.3,0.1-0.5,0.3-1,0.2c0.1-0.2,0.2-0.4,0-0.5c-0.3,0.5-1.4,0.6-2.1,0.8c0,0,0,0,0-0.1
	c-0.4,0-0.6-0.2-0.7-0.6c0.4,0,0.5-0.1,0.5-0.4c-0.8-0.1-0.8,0.2-0.7,0.5c0.1,0.3,0.2,0.6-0.4,0.5c0.2-0.2,0-0.3-0.2-0.4l-0.2,0.5
	l-0.1-0.6c-0.3-0.2-0.4,0.2-0.7,0.3l0,0c-0.3-0.2-0.5-0.3-0.2-0.6c-0.2,0.3-0.7,0-0.8,0.5l0.4,0.2c-0.2,0.3-0.5-0.1-0.6,0.2
	c-0.2-0.1,0.3-0.4-0.1-0.4c-0.5,0.1-0.5,0.6-0.4,0.7c0.2,0,0.2-0.1,0.2-0.2c0.4,0.6-0.2,0.4-0.4,1l0.1-0.5l-1,0.3
	c0.2-0.4-0.2-0.5-0.2-0.9c-0.1,0.1-0.2,0.2-0.2,0.3c-0.1,0.1-0.2,0.2-0.3,0.3c-0.2,0.2-0.4,0.4-0.7,0.5c-0.2,0.2-0.5,0.3-0.8,0.4
	c-0.3,0.1-0.6,0.1-0.8,0.1c0,0,0.1-0.1,0.3-0.3c0.1-0.1,0.3-0.3,0.3-0.3c-0.4,0-0.7,0.1-1,0.2c-0.3,0.1-0.5,0.3-0.6,0.5
	c-0.1-0.6,0-0.5,0.4-1.1c-0.2,0.2-0.5,0.1-0.8,0.1c-0.3,0-0.5,0-0.4,0.2l0.1,0.1c-0.2,0-0.6,0.1-0.8,0.1c0,0,0.1-0.1,0.3-0.2
	c0.1-0.1,0.3-0.3,0.3-0.3c-0.3,0.1-0.7,0.2-1,0.3c0,0-0.1,0-0.1,0C384.6,307.5,385.9,308,387.1,308.3
	C387.1,308.3,387.1,308.3,387.1,308.3z M416.9,308c0.2-0.1,0.5-0.2,0.7-0.2c-0.1-0.1-0.2-0.2-0.2-0.2s-0.1,0.1-0.2,0.2
	C417.2,307.8,417,307.9,416.9,308z M447.1,247.2c-0.2,0.2-0.4,0.5-0.2,1.1c-0.5-0.8-0.3,0-0.5,0c0.4,0.1,0.6,0.6,0.8,1.1
	c0.1,0.5,0.3,1,0.6,1.2c-0.6,0.4,0.4,0.9,0.3,1.6c-0.3-0.5-0.7-0.5-1.2-0.6c0.2,0.3,0.3,0.7,0.4,1.2c0.1,0.5,0.2,1,0.4,1.4
	c-0.3,0.8-0.2,1.4-0.1,2c0.1,0.6,0.1,1.2-0.2,2c-0.2-0.2-0.5-0.5-0.5-0.7c-0.3,0.3-0.2,0.5-0.1,0.7c0.1,0.2,0.2,0.3-0.1,0.6
	c0.3,0.7,0.3-0.2,0.7-0.3l0.4,0.6l-0.4-0.2c-0.2,0.7,0.3,0.7,0.5,1.1c0,0.6-0.4-0.1-0.6,0.1c-0.3,0.7-0.2,1.3-0.1,1.8
	c0.1,0.6,0.3,1.2,0.2,1.8l-0.2-0.3c-0.3,0.5-0.3,1.7-0.1,2.3c0,0,0.1,0.2,0.3,0.2c-0.2,0.3-0.2,0.8-0.4,0.5c0.3,0.4,0.3,0.8,0.2,1.2
	c0,0.2-0.1,0.4-0.1,0.7c0,0.2-0.1,0.5,0,0.7c-0.1-0.3-0.2-0.5-0.5-0.4c-0.1,0.4-0.2,0.9-0.3,1.4c-0.1,0.5-0.2,0.9-0.4,1.2
	c-0.3-0.5-0.4-0.6-0.7-0.6c0.4,0.7,0.9,0.9,0.8,2l-0.3-0.1c-0.1,0.3-0.1,0.8-0.1,1.1c0,0.3,0,0.6-0.4,0.6c0.2-0.7-0.2-0.6-0.4-1.1
	c0.2,0.4,0,1.3-0.1,1.6c-0.3,0-0.7,1.1-0.9,0.2c-0.1,0.2-0.2,0.5-0.2,0.8c0.1,0.3,0.7,0.6,0.6,1.2l-0.4,0.1c0.6,0.5-0.2,1,0.3,1.7
	l-0.2-0.1c0.2,0.5-0.3,0.8-0.4,1.2c-0.2-0.2-0.6-0.1-0.9-0.1c0.2,0.1,0,0.6,0.2,0.7l-0.3-0.1c0,0,0,0.2,0,0.4c0,0.2,0,0.4,0,0.4
	c-0.4,0.4-0.3-0.9-0.7-0.7c0.3,0.5,0.3,1,0.4,1.6c-0.2-0.3-0.3-0.1-0.4,0.2c-0.1,0.3-0.2,0.5-0.4,0.3c-0.3,0.6,0.7,0.9,0.2,1.6
	l-0.2-0.5c0,0.5-0.1,0.9-0.1,1.3c-0.1,0.4-0.1,0.7-0.1,1c0,0-0.1,0-0.1,0c0,0.2-0.2,0.5-0.4,0.8c-0.1,0.1-0.2,0.3-0.3,0.5
	c0,0.1-0.1,0.3,0,0.4c-0.2-0.2,0.1-0.6-0.4-0.5c0.4,0.3-0.3,1,0.1,1c-0.2-0.1-0.5,0.5-0.8,0.1c-0.1,0.3,0.2,0.4,0.4,0.5
	c-0.6,0,0,0.7-0.6,0.7c-0.1,0,0-0.2,0.1-0.3c-0.1,0-0.5-0.1-0.5,0.2l0.5,0.5c-0.5,0.7-0.3,0.5-0.9,1.3c0-0.5-0.2-0.1-0.3-0.4
	c-0.2,0.8,0.1,0.3,0,1.2c0,0-0.1-0.2-0.2-0.4c-0.1-0.2-0.2-0.4-0.2-0.4c-0.3,0.7,0.7,0.8,0,1.5c-0.1-0.4-1.1-0.4-0.9-0.8
	c-0.3,0-0.5,0.4-0.7,0.6c-0.2,0.3-0.4,0.5-0.4,0.2c-0.4,0.4-0.4,0.8-0.3,1.2c0,0.2,0,0.4,0,0.6c-0.1,0.2-0.2,0.3-0.5,0.4l-0.5,0
	c0.1,0.3,0.1,0.5,0,0.6c0-0.1,0-0.3-0.2-0.4c-0.5,0.8-0.6,0.8-0.6,1.5c0-0.3-0.1-0.9-0.5-0.8c-0.2,0-0.3,0.3-0.5,0.4
	c-0.1,0.3,0.4,0.5,0.1,1c-0.4,0.3-0.4,1.1-1,0.8l0.5-0.2l-0.2-0.6c-0.5,0.6-1.1,0.8-1.1,1.3c0,0-0.1,0-0.2-0.1
	c-0.2,1-0.7-0.3-1.3,0.6c-0.1,0.4-0.3,0.9-0.3,1.1l0-0.8l-0.6,0.8l0.3,0.3c-0.8,0-1.9,0.6-2.6,0.8c-0.5,0.6-0.9,1.2-0.7,1.5
	c-1.1,0.2,0-1.1-1.1-1.2c-0.6,1.3-0.2,1-1.5,1.8c0.1,0.2,0.7,0.3,0.3,0.7c-0.1,0.1-0.4,0.1-0.7,0.3l-0.1,0.1l-0.1,0l-0.1,0
	c-0.1,0-0.1,0.1-0.2,0.1c0,0,0,0-0.1,0.1c-0.1,0.1-0.1,0.2-0.1,0.3c0,0,0-0.1,0-0.1c0,0.5-0.2,0.6-0.5,0.8c-0.2,0.1-0.5,0.3-0.5,0.6
	c0-0.1-0.1-0.1-0.1-0.1l-0.4,0.8c5.4-2.4,10.5-5.8,15-10.2C448.9,282.9,452.8,263.6,447.1,247.2z M419.4,307
	c0.2-0.1,0.5-0.2,0.7-0.3l-0.5-0.1C419.6,306.9,419.6,306.9,419.4,307z M419,306.5c0.2,0.2,0,0.4-0.2,0.6c-0.2,0.1-0.4,0.2-0.3,0.3
	c0.3-0.1,0.5-0.2,0.8-0.3C419.2,306.8,419.4,306.5,419,306.5z"/>
<path id="oso" class="st1" d="M450.2,211c-1.2-2.4-2-4.6-2.5-6.7l2.2-6.1l2.3,1.3c0,0,2.6-10.8,3.3-19.7c0.7-8.9-5.6-26.9-5.6-26.9
	c9.5-2,11.8-17.1,11.8-17.1s0.3-14.8-6.6-20.3c-6.9-5.6-13.5,1.3-13.5,1.3s-7.5,12.1-17.4,5.6c-9.8-6.6-22-1.6-22-1.6
	c-12.5-5.3-22.3,3.3-28.6,2.6c-6.2-0.7-11.2-9.8-18.4-10.2c-7.2-0.3-9.8,8.9-9.8,8.9c-4.9,26.6,10.5,30.2,10.5,30.2
	s-2.3,3.3-4.6,17.1c-2.3,13.8,0.7,30.5,0.7,30.5l3.9-2l1.6,7.9l0.5,0.1c-0.5,1.6-1.2,3.3-2.1,5.1c0,0-42.4,36.3-38.1,68.3
	s21,48.6,47.3,50.8c26.3,2.2,32.4-15.8,33.3-21.4c0.9-5.7,2.2-27.1-27.6-20.1c-24.9,5.8-10.9,0.7-5.7-1.1c-3.3-7-4.9-13.7-4.9-22.3
	c0-26.2,19.2-47.5,42.9-47.5c23.7,0,42.9,21.3,42.9,47.5c0,8.1-2.1,15.6-5.1,22.4c5.3,1.9,18.9,6.9-5.8,1.1
	c-29.8-7-28.4,14.4-27.6,20.1c0.9,5.7,7,23.6,33.3,21.4c26.3-2.2,42.9-18.8,47.3-50.8C492.6,247.3,450.2,211,450.2,211z"/>
<path id="Sombras" class="st4" d="M445.2,128.9c-3,5.3-7.5,5.6-5.9,13.5c1.6,7.9,6.9,13.5,9.2,27.2s-13.5,36.4-13.5,36.4
	s2-40.4-13.5-55.5l5.6-3c0,0-0.7-4.6-10.8-3.9c-10.2,0.7-8.9-3-13.1-3c-0.2,0-0.4,0-0.6,0c-0.2,0-0.4,0-0.6,0c-4.3,0-3,3.6-13.1,3
	c-10.2-0.7-10.8,3.9-10.8,3.9l5.6,3c-15.4,15.1-13.5,55.5-13.5,55.5s-15.8-22.6-13.5-36.4s7.5-19.4,9.2-27.2c1.6-7.9-3-8.2-5.9-13.5
	c-3-5.3-8.9-3.9-8.9-3.9s1-1,3-3.9c2-3,16.7,8.5,16.7,8.5l0.3,3c0,0,6.6-3.9,12.1-5.9c5.6-2,13.1-2,13.1-2s1.8,3.8,6.2,4.2
	c4.4-0.4,6.2-4.2,6.2-4.2s7.5,0,13.1,2c5.6,2,12.1,5.9,12.1,5.9l0.3-3c0,0,14.8-11.5,16.7-8.5c2,3,3,3.9,3,3.9
	S448.2,123.7,445.2,128.9z M402.3,152.9c0,0-14.3-0.3-14.8,9.2c-0.5,9.5,1.3,24.9,1.3,24.9s5.7,5.9,13.9,5.6
	c8.2-0.3,14.1-5.3,14.1-5.3s3-24.1,0.8-27.7C415.5,156,409.5,152.9,402.3,152.9z M356.4,149.2l3.3-3.9c0,0-8.5-5.3-9.2-14.1
	C350.5,131.1,348.3,142.5,356.4,149.2z M454.9,131c-0.7,8.9-9.2,14.1-9.2,14.1l3.3,3.9C457,142.4,454.9,131,454.9,131z M446.2,265
	c0,8.1-2.1,15.6-5.1,22.4c0.7,0.2,1.5,0.5,2.3,0.8c5.5-4.3,8.7-11.3,8.7-22.6c0-29.8-22-53.9-49.1-53.9c-27.1,0-49.1,24.1-49.1,53.9
	c0,11.5,3.3,18.4,8.8,22.7c1-0.4,1.9-0.7,2.7-1c-3.3-7-4.9-13.7-4.9-22.3c0-26.2,19.2-47.5,42.9-47.5
	C427,217.5,446.2,238.7,446.2,265z M441.1,289.7c-1.6-0.4-3.6-0.8-5.8-1.3c-16-3.8-23,0.7-26,6.5
	C422.1,294.9,433.3,294.3,441.1,289.7z M364.9,289.8c7.8,4.6,19.2,5.1,32,5.2c-2.9-5.8-9.9-10.3-26-6.5
	C368.6,289,366.6,289.4,364.9,289.8z"/>
<path id="Cara" class="st6" d="M402.1,155.5c0,0,2.1,3.6,5.7,3.9c3.6,0.3,4.8,0.3,5.6,7.4c0.8,7.1-1,9-8.5,10.3c0,0-1.6,5.6,4.3,4.8l0.8,2.1
	l-7.1,2l-8.4-1.8l1.3-1.6c0,0,7.1,1,4.8-5.3c0,0-9.8-0.7-9-11.2c0.8-10.5,8-8,8-8L402.1,155.5z M387,144c-2.6,0-4.8,2.1-4.8,4.8
	s2.1,4.8,4.8,4.8s4.8-2.1,4.8-4.8S389.6,144,387,144z M417.5,144c-2.6,0-4.8,2.1-4.8,4.8s2.1,4.8,4.8,4.8c2.6,0,4.8-2.1,4.8-4.8
	S420.1,144,417.5,144z"/>
<path id="Silueta_AMW" class="st5" d="M292.8,313.4c2.7,8.2,8.1,23.2,18.5,50.7l0.9,2.3h-39.6l0.9-2.2c0,0,0,0,0-0.1
	C280.1,347.8,288.3,327,292.8,313.4z M299.3,267.6l52.1,126.9l51.9-135.6c0.3-0.9,1.2-1.5,2.2-1.5h2.6c1,0,1.8,0.6,2.2,1.5
	c34.3,82.7,46.4,116.1,50.7,129c4.3-12.9,16.5-45.7,50.6-126.8c1.1-3,4-10.8,7.9-21c10.9-29.1,29.2-77.8,33.6-89.3
	C513.9,112.6,460.3,89,401.3,89c-56.5,0-108,21.6-146.7,57L299.3,267.6z M572,171.9l-42.7,113l52.3,142.4
	c23.3-34.6,36.9-76.3,36.9-121.1C618.5,255.5,601.1,208.9,572,171.9z M514,315.6c-4.3,12.3-16.5,44.1-50.6,124.9
	c-0.4,0.9-1.2,1.4-2.2,1.4h-2.6c-1,0-1.8-0.6-2.2-1.5c-32.7-79.9-44.6-112.1-48.9-124.9c-3.8,12.3-14.1,42.6-41.7,114.1
	c0.1,0.6,0,1.2-0.4,1.7c-0.4,0.7-1.2,1-2,1H339c-1,0-1.9-0.6-2.2-1.5l-16.3-43H264l-25.4,62.2c39.8,44.9,97.9,73.3,162.7,73.3
	c63.9,0,121.3-27.6,161.1-71.5C532.3,371.7,518.8,330.8,514,315.6z M279.7,286.7c-9.5-25-32.2-88.1-44-121.1
	c-32.2,37.9-51.7,87-51.7,140.7c0,44.7,13.5,86.2,36.7,120.8L279.7,286.7z"/>
</svg>
